  0
SECTION
  2
HEADER
  9
$ACADVER
  1
AC1009
  9
$INSBASE
 10
0.0
 20
0.0
 30
0.0
  9
$EXTMIN
 10
96.560664110048506
 20
57.180395360909053
 30
0.0
  9
$EXTMAX
 10
1953.7361784887139
 20
1184.034376480628
 30
0.0
  9
$LIMMIN
 10
0.0
 20
0.0
  9
$LIMMAX
 10
12.0
 20
9.0
  9
$ORTHOMODE
 70
     0
  9
$REGENMODE
 70
     1
  9
$FILLMODE
 70
     1
  9
$QTEXTMODE
 70
     0
  9
$MIRRTEXT
 70
     1
  9
$DRAGMODE
 70
     2
  9
$LTSCALE
 40
1.0
  9
$OSMODE
 70
  2095
  9
$ATTMODE
 70
     1
  9
$TEXTSIZE
 40
0.2
  9
$TRACEWID
 40
0.05
  9
$TEXTSTYLE
  7
STANDARD
  9
$CLAYER
  8
0
  9
$CELTYPE
  6
BYLAYER
  9
$CECOLOR
 62
   256
  9
$DIMSCALE
 40
1.0
  9
$DIMASZ
 40
0.18
  9
$DIMEXO
 40
0.0625
  9
$DIMDLI
 40
0.38
  9
$DIMRND
 40
0.0
  9
$DIMDLE
 40
0.0
  9
$DIMEXE
 40
0.18
  9
$DIMTP
 40
0.0
  9
$DIMTM
 40
0.0
  9
$DIMTXT
 40
0.18
  9
$DIMCEN
 40
0.09
  9
$DIMTSZ
 40
0.0
  9
$DIMTOL
 70
     0
  9
$DIMLIM
 70
     0
  9
$DIMTIH
 70
     1
  9
$DIMTOH
 70
     1
  9
$DIMSE1
 70
     0
  9
$DIMSE2
 70
     0
  9
$DIMTAD
 70
     0
  9
$DIMZIN
 70
     0
  9
$DIMBLK
  1

  9
$DIMASO
 70
     1
  9
$DIMSHO
 70
     1
  9
$DIMPOST
  1

  9
$DIMAPOST
  1

  9
$DIMALT
 70
     0
  9
$DIMALTD
 70
     2
  9
$DIMALTF
 40
25.399999999999999
  9
$DIMLFAC
 40
1.0
  9
$DIMTOFL
 70
     0
  9
$DIMTVP
 40
0.0
  9
$DIMTIX
 70
     0
  9
$DIMSOXD
 70
     0
  9
$DIMSAH
 70
     0
  9
$DIMBLK1
  1

  9
$DIMBLK2
  1

  9
$DIMSTYLE
  2
STANDARD
  9
$DIMCLRD
 70
     0
  9
$DIMCLRE
 70
     0
  9
$DIMCLRT
 70
     0
  9
$DIMTFAC
 40
1.0
  9
$DIMGAP
 40
0.09
  9
$LUNITS
 70
     2
  9
$LUPREC
 70
     4
  9
$SKETCHINC
 40
0.1
  9
$FILLETRAD
 40
20.0
  9
$AUNITS
 70
     0
  9
$AUPREC
 70
     0
  9
$MENU
  1
.
  9
$ELEVATION
 40
0.0
  9
$PELEVATION
 40
0.0
  9
$THICKNESS
 40
0.0
  9
$LIMCHECK
 70
     0
  9
$BLIPMODE
 70
     0
  9
$CHAMFERA
 40
3.0
  9
$CHAMFERB
 40
3.0
  9
$SKPOLY
 70
     0
  9
$TDCREATE
 40
2457196.5640494791
  9
$TDUPDATE
 40
2457197.430784144
  9
$TDINDWG
 40
0.1203417245
  9
$TDUSRTIMER
 40
0.1203403704
  9
$USRTIMER
 70
     1
  9
$ANGBASE
 50
0.0
  9
$ANGDIR
 70
     0
  9
$PDMODE
 70
     0
  9
$PDSIZE
 40
0.0
  9
$PLINEWID
 40
0.0
  9
$COORDS
 70
     0
  9
$SPLFRAME
 70
     0
  9
$SPLINETYPE
 70
     6
  9
$SPLINESEGS
 70
     8
  9
$ATTDIA
 70
     1
  9
$ATTREQ
 70
     1
  9
$HANDLING
 70
     1
  9
$HANDSEED
  5
10F7
  9
$SURFTAB1
 70
     6
  9
$SURFTAB2
 70
     6
  9
$SURFTYPE
 70
     6
  9
$SURFU
 70
     6
  9
$SURFV
 70
     6
  9
$UCSNAME
  2

  9
$UCSORG
 10
0.0
 20
0.0
 30
0.0
  9
$UCSXDIR
 10
1.0
 20
0.0
 30
0.0
  9
$UCSYDIR
 10
0.0
 20
1.0
 30
0.0
  9
$PUCSNAME
  2

  9
$PUCSORG
 10
0.0
 20
0.0
 30
0.0
  9
$PUCSXDIR
 10
1.0
 20
0.0
 30
0.0
  9
$PUCSYDIR
 10
0.0
 20
1.0
 30
0.0
  9
$USERI1
 70
     0
  9
$USERI2
 70
     0
  9
$USERI3
 70
     0
  9
$USERI4
 70
     0
  9
$USERI5
 70
     0
  9
$USERR1
 40
0.0
  9
$USERR2
 40
0.0
  9
$USERR3
 40
0.0
  9
$USERR4
 40
0.0
  9
$USERR5
 40
0.0
  9
$WORLDVIEW
 70
     1
  9
$SHADEDGE
 70
     3
  9
$SHADEDIF
 70
    70
  9
$TILEMODE
 70
     1
  9
$MAXACTVP
 70
    64
  9
$PLIMCHECK
 70
     0
  9
$PEXTMIN
 10
1.0000000000000000E+020
 20
1.0000000000000000E+020
 30
1.0000000000000000E+020
  9
$PEXTMAX
 10
-1.0000000000000000E+020
 20
-1.0000000000000000E+020
 30
-1.0000000000000000E+020
  9
$PLIMMIN
 10
0.0
 20
0.0
  9
$PLIMMAX
 10
12.0
 20
9.0
  9
$UNITMODE
 70
     0
  9
$VISRETAIN
 70
     1
  9
$PLINEGEN
 70
     0
  9
$PSLTSCALE
 70
     1
  0
ENDSEC
  0
SECTION
  2
TABLES
  0
TABLE
  2
VPORT
 70
     1
  0
VPORT
  2
*ACTIVE
 70
     0
 10
0.0
 20
0.0
 11
1.0
 21
1.0
 12
857.09731751563424
 22
507.23662729698748
 13
0.0
 23
0.0
 14
0.5
 24
0.5
 15
0.5
 25
0.5
 16
0.0
 26
0.0
 36
1.0
 17
0.0
 27
0.0
 37
0.0
 40
1046.715287593312
 41
2.5344506517690868
 42
50.0
 43
0.0
 44
0.0
 50
0.0
 51
0.0
 71
     0
 72
   100
 73
     1
 74
     3
 75
     0
 76
     0
 77
     0
 78
     0
  0
ENDTAB
  0
TABLE
  2
LTYPE
 70
     1
  0
LTYPE
  2
CONTINUOUS
 70
     0
  3
Solid line
 72
    65
 73
     0
 40
0.0
  0
ENDTAB
  0
TABLE
  2
LAYER
 70
     3
  0
LAYER
  2
0
 70
     0
 62
     7
  6
CONTINUOUS
  0
LAYER
  2
LAYER_1
 70
     0
 62
     7
  6
CONTINUOUS
  0
LAYER
  2
ADSK_ASSOC_ENTITY_BACKUPS
 70
     5
 62
    -7
  6
CONTINUOUS
  0
ENDTAB
  0
TABLE
  2
STYLE
 70
     3
  0
STYLE
  2
STANDARD
 70
     0
 40
0.0
 41
1.0
 50
0.0
 71
     0
 42
0.2
  3
txt
  4

  0
STYLE
  2
0
 70
     0
 40
1.0
 41
1.0
 50
0.0
 71
     0
 42
0.2
  3
txt
  4

  0
STYLE
  2
1
 70
     0
 40
1.0
 41
1.0
 50
0.0
 71
     0
 42
0.2
  3
txt
  4

  0
ENDTAB
  0
TABLE
  2
VIEW
 70
     1
  0
ENDTAB
  0
TABLE
  2
UCS
 70
     0
  0
ENDTAB
  0
TABLE
  2
APPID
 70
     7
  0
APPID
  2
ACAD
 70
     0
  0
APPID
  2
ODA
 70
     0
  0
APPID
  2
ACAD_MLEADERVER
 70
     0
  0
APPID
  2
ACAD_EXEMPT_FROM_CAD_STANDARDS
 70
     0
  0
APPID
  2
ACAD_NAV_VCDISPLAY
 70
     0
  0
APPID
  2
ACDBDYNAMICBLOCKTRUENAME2
 70
     0
  0
APPID
  2
ACDBDYNAMICBLOCKGUID
 70
     0
  0
ENDTAB
  0
TABLE
  2
DIMSTYLE
 70
     1
  0
DIMSTYLE
  2
STANDARD
 70
     0
  3

  4

  5

  6

  7

 40
1.0
 41
0.18
 42
0.0625
 43
0.38
 44
0.18
 45
0.0
 46
0.0
 47
0.0
 48
0.0
140
0.18
141
0.09
142
0.0
143
25.399999999999999
144
1.0
145
0.0
146
1.0
147
0.09
 71
     0
 72
     0
 73
     1
 74
     1
 75
     0
 76
     0
 77
     0
 78
     0
170
     0
171
     2
172
     0
173
     0
174
     0
175
     0
176
     0
177
     0
178
     0
  0
ENDTAB
  0
ENDSEC
  0
SECTION
  2
BLOCKS
  0
BLOCK
  8
0
  2
$MODEL_SPACE
 70
     0
 10
0.0
 20
0.0
 30
0.0
  3
$MODEL_SPACE
  1

  0
ENDBLK
  5
21
  8
0
  0
BLOCK
 67
     1
  8
0
  2
$PAPER_SPACE
 70
     0
 10
0.0
 20
0.0
 30
0.0
  3
$PAPER_SPACE
  1

  0
ENDBLK
  5
1D
 67
     1
  8
0
  0
BLOCK
  8
0
  2
A$C735C77E2
 70
     0
 10
0.0
 20
0.0
 30
0.0
  3
A$C735C77E2
  1

  0
CIRCLE
  5
2A4
  8
0
 10
3.1749999320350071
 20
3.175000777136574
 30
0.0
 40
3.1749999999999989
  0
ENDBLK
  5
2A8
  8
0
  0
BLOCK
  8
0
  2
*U4
 70
     1
 10
0.0
 20
0.0
 30
0.0
  3
*U4
  1

  0
CIRCLE
  5
2CE
  8
0
 10
-5.0
 20
0.0
 30
0.0
 40
1.5
  0
ENDBLK
  5
2CF
  8
0
  0
BLOCK
  8
0
  2
*U5
 70
     1
 10
0.0
 20
0.0
 30
0.0
  3
*U5
  1

  0
INSERT
  5
2D4
  8
0
  6
BYBLOCK
 62
     0
  2
*U4
 10
751.36936812707472
 20
-123.1387107051996
 30
0.0
 50
90.0
  0
INSERT
  5
2D5
  8
0
  6
BYBLOCK
 62
     0
  2
*U4
 10
763.86936812707472
 20
-110.6387107051996
 30
0.0
 50
180.0
  0
INSERT
  5
2D6
  8
0
  6
BYBLOCK
 62
     0
  2
*U4
 10
751.36936812707472
 20
-98.138710705199628
 30
0.0
 50
270.0
  0
INSERT
  5
2D7
  8
0
  6
BYBLOCK
 62
     0
  2
*U4
 10
738.86936812707472
 20
-110.6387107051996
 30
0.0
  0
ENDBLK
  5
2D8
  8
0
  0
BLOCK
  8
0
  2
*U7
 70
     1
 10
0.0
 20
0.0
 30
0.0
  3
*U7
  1

  0
CIRCLE
  5
308
  8
0
 10
-5.0
 20
0.0
 30
0.0
 40
1.5
  0
ENDBLK
  5
309
  8
0
  0
BLOCK
  8
0
  2
*U8
 70
     1
 10
0.0
 20
0.0
 30
0.0
  3
*U8
  1

  0
INSERT
  5
30E
  8
0
  6
BYBLOCK
 62
     0
  2
*U7
 10
751.36936812707472
 20
-123.1387107051996
 30
0.0
 50
90.0
  0
INSERT
  5
30F
  8
0
  6
BYBLOCK
 62
     0
  2
*U7
 10
763.86936812707472
 20
-110.6387107051996
 30
0.0
 50
180.0
  0
INSERT
  5
310
  8
0
  6
BYBLOCK
 62
     0
  2
*U7
 10
751.36936812707472
 20
-98.138710705199628
 30
0.0
 50
270.0
  0
INSERT
  5
311
  8
0
  6
BYBLOCK
 62
     0
  2
*U7
 10
738.86936812707472
 20
-110.6387107051996
 30
0.0
  0
ENDBLK
  5
312
  8
0
  0
BLOCK
  8
0
  2
*U10
 70
     1
 10
0.0
 20
0.0
 30
0.0
  3
*U10
  1

  0
CIRCLE
  5
346
  8
0
 10
-5.0
 20
0.0
 30
0.0
 40
1.5
  0
ENDBLK
  5
347
  8
0
  0
BLOCK
  8
0
  2
*U11
 70
     1
 10
0.0
 20
0.0
 30
0.0
  3
*U11
  1

  0
INSERT
  5
34C
  8
0
  6
BYBLOCK
 62
     0
  2
*U10
 10
751.36936812707472
 20
-123.1387107051996
 30
0.0
 50
90.0
  0
INSERT
  5
34D
  8
0
  6
BYBLOCK
 62
     0
  2
*U10
 10
763.86936812707472
 20
-110.6387107051996
 30
0.0
 50
180.0
  0
INSERT
  5
34E
  8
0
  6
BYBLOCK
 62
     0
  2
*U10
 10
751.36936812707472
 20
-98.138710705199628
 30
0.0
 50
270.0
  0
INSERT
  5
34F
  8
0
  6
BYBLOCK
 62
     0
  2
*U10
 10
738.86936812707472
 20
-110.6387107051996
 30
0.0
  0
ENDBLK
  5
350
  8
0
  0
BLOCK
  8
0
  2
*U14
 70
     1
 10
0.0
 20
0.0
 30
0.0
  3
*U14
  1

  0
CIRCLE
  5
45C
  8
0
 10
0.0
 20
0.0
 30
0.0
 40
1.5
  0
ENDBLK
  5
457
  8
0
  0
BLOCK
  8
0
  2
*U15
 70
     1
 10
0.0
 20
0.0
 30
0.0
  3
*U15
  1

  0
INSERT
  5
467
  8
0
  6
BYBLOCK
 62
     0
  2
*U14
 10
1421.305634025729
 20
-512.46991599830608
 30
0.0
  0
INSERT
  5
468
  8
0
  6
BYBLOCK
 62
     0
  2
*U14
 10
1440.180634025729
 20
-545.16237499116858
 30
0.0
 50
59.999999999999993
  0
INSERT
  5
469
  8
0
  6
BYBLOCK
 62
     0
  2
*U14
 10
1477.930634025729
 20
-545.16237499116869
 30
0.0
 41
0.9999999999999998
 42
0.9999999999999998
 43
0.9999999999999998
 50
119.9999999999999
  0
INSERT
  5
46A
  8
0
  6
BYBLOCK
 62
     0
  2
*U14
 10
1496.805634025729
 20
-512.46991599830608
 30
0.0
 50
180.0
  0
INSERT
  5
46B
  8
0
  6
BYBLOCK
 62
     0
  2
*U14
 10
1477.930634025729
 20
-479.77745700544352
 30
0.0
 41
1.0
 42
1.0
 43
1.0
 50
240.0
  0
INSERT
  5
46C
  8
0
  6
BYBLOCK
 62
     0
  2
*U14
 10
1440.180634025729
 20
-479.77745700544352
 30
0.0
 41
0.9999999999999998
 42
0.9999999999999998
 43
0.9999999999999998
 50
300.0
  0
ENDBLK
  5
45A
  8
0
  0
BLOCK
  8
0
  2
*U17
 70
     1
 10
0.0
 20
0.0
 30
0.0
  3
*U17
  1

  0
CIRCLE
  5
496
  8
0
 10
0.0
 20
0.0
 30
0.0
 40
1.5
  0
ENDBLK
  5
497
  8
0
  0
BLOCK
  8
0
  2
*U18
 70
     1
 10
0.0
 20
0.0
 30
0.0
  3
*U18
  1

  0
INSERT
  5
49C
  8
0
  6
BYBLOCK
 62
     0
  2
*U17
 10
1421.305634025729
 20
-512.46991599830608
 30
0.0
  0
INSERT
  5
49D
  8
0
  6
BYBLOCK
 62
     0
  2
*U17
 10
1440.180634025729
 20
-545.16237499116858
 30
0.0
 50
59.999999999999993
  0
INSERT
  5
49E
  8
0
  6
BYBLOCK
 62
     0
  2
*U17
 10
1477.930634025729
 20
-545.16237499116869
 30
0.0
 41
0.9999999999999998
 42
0.9999999999999998
 43
0.9999999999999998
 50
119.9999999999999
  0
INSERT
  5
49F
  8
0
  6
BYBLOCK
 62
     0
  2
*U17
 10
1496.805634025729
 20
-512.46991599830608
 30
0.0
 50
180.0
  0
INSERT
  5
4A0
  8
0
  6
BYBLOCK
 62
     0
  2
*U17
 10
1477.930634025729
 20
-479.77745700544352
 30
0.0
 41
1.0
 42
1.0
 43
1.0
 50
240.0
  0
INSERT
  5
4A1
  8
0
  6
BYBLOCK
 62
     0
  2
*U17
 10
1440.180634025729
 20
-479.77745700544352
 30
0.0
 41
0.9999999999999998
 42
0.9999999999999998
 43
0.9999999999999998
 50
300.0
  0
ENDBLK
  5
4A2
  8
0
  0
BLOCK
  8
0
  2
*U20
 70
     1
 10
0.0
 20
0.0
 30
0.0
  3
*U20
  1

  0
CIRCLE
  5
4E4
  8
0
 10
0.0
 20
0.0
 30
0.0
 40
1.5
  0
ENDBLK
  5
4E5
  8
0
  0
BLOCK
  8
0
  2
*U21
 70
     1
 10
0.0
 20
0.0
 30
0.0
  3
*U21
  1

  0
INSERT
  5
4EA
  8
0
  6
BYBLOCK
 62
     0
  2
*U20
 10
1421.305634025729
 20
-512.46991599830608
 30
0.0
  0
INSERT
  5
4EB
  8
0
  6
BYBLOCK
 62
     0
  2
*U20
 10
1440.180634025729
 20
-545.16237499116858
 30
0.0
 50
59.999999999999993
  0
INSERT
  5
4EC
  8
0
  6
BYBLOCK
 62
     0
  2
*U20
 10
1477.930634025729
 20
-545.16237499116869
 30
0.0
 41
0.9999999999999998
 42
0.9999999999999998
 43
0.9999999999999998
 50
119.9999999999999
  0
INSERT
  5
4ED
  8
0
  6
BYBLOCK
 62
     0
  2
*U20
 10
1496.805634025729
 20
-512.46991599830608
 30
0.0
 50
180.0
  0
INSERT
  5
4EE
  8
0
  6
BYBLOCK
 62
     0
  2
*U20
 10
1477.930634025729
 20
-479.77745700544352
 30
0.0
 41
1.0
 42
1.0
 43
1.0
 50
240.0
  0
INSERT
  5
4EF
  8
0
  6
BYBLOCK
 62
     0
  2
*U20
 10
1440.180634025729
 20
-479.77745700544352
 30
0.0
 41
0.9999999999999998
 42
0.9999999999999998
 43
0.9999999999999998
 50
300.0
  0
ENDBLK
  5
4F0
  8
0
  0
BLOCK
  8
0
  2
*U22
 70
     1
 10
0.0
 20
0.0
 30
0.0
  3
*U22
  1

  0
CIRCLE
  5
505
  8
0
 10
0.0
 20
0.0
 30
0.0
 40
1.5
  0
ENDBLK
  5
506
  8
0
  0
BLOCK
  8
0
  2
*U23
 70
     1
 10
0.0
 20
0.0
 30
0.0
  3
*U23
  1

  0
INSERT
  5
509
  8
0
  6
BYBLOCK
 62
     0
  2
*U22
 10
1421.305634025729
 20
-512.46991599830608
 30
0.0
  0
INSERT
  5
50A
  8
0
  6
BYBLOCK
 62
     0
  2
*U22
 10
1440.180634025729
 20
-545.16237499116858
 30
0.0
 50
59.999999999999993
  0
INSERT
  5
50B
  8
0
  6
BYBLOCK
 62
     0
  2
*U22
 10
1477.930634025729
 20
-545.16237499116869
 30
0.0
 41
0.9999999999999998
 42
0.9999999999999998
 43
0.9999999999999998
 50
119.9999999999999
  0
INSERT
  5
50C
  8
0
  6
BYBLOCK
 62
     0
  2
*U22
 10
1496.805634025729
 20
-512.46991599830608
 30
0.0
 50
180.0
  0
INSERT
  5
50D
  8
0
  6
BYBLOCK
 62
     0
  2
*U22
 10
1477.930634025729
 20
-479.77745700544352
 30
0.0
 41
1.0
 42
1.0
 43
1.0
 50
240.0
  0
INSERT
  5
50E
  8
0
  6
BYBLOCK
 62
     0
  2
*U22
 10
1440.180634025729
 20
-479.77745700544352
 30
0.0
 41
0.9999999999999998
 42
0.9999999999999998
 43
0.9999999999999998
 50
300.0
  0
ENDBLK
  5
50F
  8
0
  0
BLOCK
  8
0
  2
*U24
 70
     1
 10
0.0
 20
0.0
 30
0.0
  3
*U24
  1

  0
INSERT
  5
511
  8
0
  2
*U23
 10
-1415.305633024238
 20
556.21991657400599
 30
0.0
  0
CIRCLE
  5
512
  8
0
 10
43.750001001491448
 20
43.750000575699907
 30
0.0
 40
43.75
  0
CIRCLE
  5
513
  8
0
 10
43.750001001491448
 20
43.750000575699907
 30
0.0
 40
31.75
  0
ENDBLK
  5
517
  8
0
  0
BLOCK
  8
0
  2
*U26
 70
     1
 10
0.0
 20
0.0
 30
0.0
  3
*U26
  1

  0
INSERT
  5
54F
  8
0
  6
BYBLOCK
 62
     0
  2
*U27
 10
1421.305634025729
 20
-512.46991599830608
 30
0.0
  0
INSERT
  5
550
  8
0
  6
BYBLOCK
 62
     0
  2
*U27
 10
1440.180634025729
 20
-545.16237499116858
 30
0.0
 50
59.999999999999993
  0
INSERT
  5
551
  8
0
  6
BYBLOCK
 62
     0
  2
*U27
 10
1477.930634025729
 20
-545.16237499116869
 30
0.0
 41
0.9999999999999998
 42
0.9999999999999998
 43
0.9999999999999998
 50
119.9999999999999
  0
INSERT
  5
552
  8
0
  6
BYBLOCK
 62
     0
  2
*U27
 10
1496.805634025729
 20
-512.46991599830608
 30
0.0
 50
180.0
  0
INSERT
  5
553
  8
0
  6
BYBLOCK
 62
     0
  2
*U27
 10
1477.930634025729
 20
-479.77745700544352
 30
0.0
 41
1.0
 42
1.0
 43
1.0
 50
240.0
  0
INSERT
  5
554
  8
0
  6
BYBLOCK
 62
     0
  2
*U27
 10
1440.180634025729
 20
-479.77745700544352
 30
0.0
 41
0.9999999999999998
 42
0.9999999999999998
 43
0.9999999999999998
 50
300.0
  0
ENDBLK
  5
555
  8
0
  0
BLOCK
  8
0
  2
*U27
 70
     1
 10
0.0
 20
0.0
 30
0.0
  3
*U27
  1

  0
CIRCLE
  5
562
  8
0
 10
0.0
 20
0.0
 30
0.0
 40
1.5
  0
ENDBLK
  5
563
  8
0
  0
BLOCK
  8
0
  2
*U29
 70
     1
 10
0.0
 20
0.0
 30
0.0
  3
*U29
  1

  0
CIRCLE
  5
58F
  8
0
 10
0.0
 20
0.0
 30
0.0
 40
1.5
  0
ENDBLK
  5
590
  8
0
  0
BLOCK
  8
0
  2
*U30
 70
     1
 10
0.0
 20
0.0
 30
0.0
  3
*U30
  1

  0
INSERT
  5
595
  8
0
  6
BYBLOCK
 62
     0
  2
*U29
 10
1421.305634025729
 20
-512.46991599830608
 30
0.0
  0
INSERT
  5
596
  8
0
  6
BYBLOCK
 62
     0
  2
*U29
 10
1440.180634025729
 20
-545.16237499116858
 30
0.0
 50
59.999999999999993
  0
INSERT
  5
597
  8
0
  6
BYBLOCK
 62
     0
  2
*U29
 10
1477.930634025729
 20
-545.16237499116869
 30
0.0
 41
0.9999999999999998
 42
0.9999999999999998
 43
0.9999999999999998
 50
119.9999999999999
  0
INSERT
  5
598
  8
0
  6
BYBLOCK
 62
     0
  2
*U29
 10
1496.805634025729
 20
-512.46991599830608
 30
0.0
 50
180.0
  0
INSERT
  5
599
  8
0
  6
BYBLOCK
 62
     0
  2
*U29
 10
1477.930634025729
 20
-479.77745700544352
 30
0.0
 41
1.0
 42
1.0
 43
1.0
 50
240.0
  0
INSERT
  5
59A
  8
0
  6
BYBLOCK
 62
     0
  2
*U29
 10
1440.180634025729
 20
-479.77745700544352
 30
0.0
 41
0.9999999999999998
 42
0.9999999999999998
 43
0.9999999999999998
 50
300.0
  0
ENDBLK
  5
59B
  8
0
  0
BLOCK
  8
0
  2
*U32
 70
     1
 10
0.0
 20
0.0
 30
0.0
  3
*U32
  1

  0
CIRCLE
  5
5D9
  8
0
 10
0.0
 20
0.0
 30
0.0
 40
1.5
  0
ENDBLK
  5
5DA
  8
0
  0
BLOCK
  8
0
  2
*U33
 70
     1
 10
0.0
 20
0.0
 30
0.0
  3
*U33
  1

  0
INSERT
  5
5DF
  8
0
  6
BYBLOCK
 62
     0
  2
*U32
 10
1421.305634025729
 20
-512.46991599830608
 30
0.0
  0
INSERT
  5
5E0
  8
0
  6
BYBLOCK
 62
     0
  2
*U32
 10
1440.180634025729
 20
-545.16237499116858
 30
0.0
 50
59.999999999999993
  0
INSERT
  5
5E1
  8
0
  6
BYBLOCK
 62
     0
  2
*U32
 10
1477.930634025729
 20
-545.16237499116869
 30
0.0
 41
0.9999999999999998
 42
0.9999999999999998
 43
0.9999999999999998
 50
119.9999999999999
  0
INSERT
  5
5E2
  8
0
  6
BYBLOCK
 62
     0
  2
*U32
 10
1496.805634025729
 20
-512.46991599830608
 30
0.0
 50
180.0
  0
INSERT
  5
5E3
  8
0
  6
BYBLOCK
 62
     0
  2
*U32
 10
1477.930634025729
 20
-479.77745700544352
 30
0.0
 41
1.0
 42
1.0
 43
1.0
 50
240.0
  0
INSERT
  5
5E4
  8
0
  6
BYBLOCK
 62
     0
  2
*U32
 10
1440.180634025729
 20
-479.77745700544352
 30
0.0
 41
0.9999999999999998
 42
0.9999999999999998
 43
0.9999999999999998
 50
300.0
  0
ENDBLK
  5
5E5
  8
0
  0
BLOCK
  8
0
  2
*U35
 70
     1
 10
0.0
 20
0.0
 30
0.0
  3
*U35
  1

  0
CIRCLE
  5
61A
  8
0
 10
0.0
 20
0.0
 30
0.0
 40
1.5
  0
ENDBLK
  5
61B
  8
0
  0
BLOCK
  8
0
  2
*U36
 70
     1
 10
0.0
 20
0.0
 30
0.0
  3
*U36
  1

  0
INSERT
  5
620
  8
0
  6
BYBLOCK
 62
     0
  2
*U35
 10
1421.305634025729
 20
-512.46991599830608
 30
0.0
  0
INSERT
  5
621
  8
0
  6
BYBLOCK
 62
     0
  2
*U35
 10
1440.180634025729
 20
-545.16237499116858
 30
0.0
 50
59.999999999999993
  0
INSERT
  5
622
  8
0
  6
BYBLOCK
 62
     0
  2
*U35
 10
1477.930634025729
 20
-545.16237499116869
 30
0.0
 41
0.9999999999999998
 42
0.9999999999999998
 43
0.9999999999999998
 50
119.9999999999999
  0
INSERT
  5
623
  8
0
  6
BYBLOCK
 62
     0
  2
*U35
 10
1496.805634025729
 20
-512.46991599830608
 30
0.0
 50
180.0
  0
INSERT
  5
624
  8
0
  6
BYBLOCK
 62
     0
  2
*U35
 10
1477.930634025729
 20
-479.77745700544352
 30
0.0
 41
1.0
 42
1.0
 43
1.0
 50
240.0
  0
INSERT
  5
625
  8
0
  6
BYBLOCK
 62
     0
  2
*U35
 10
1440.180634025729
 20
-479.77745700544352
 30
0.0
 41
0.9999999999999998
 42
0.9999999999999998
 43
0.9999999999999998
 50
300.0
  0
ENDBLK
  5
626
  8
0
  0
BLOCK
  8
0
  2
*U38
 70
     1
 10
0.0
 20
0.0
 30
0.0
  3
*U38
  1

  0
CIRCLE
  5
695
  8
0
 10
-5.0
 20
0.0
 30
0.0
 40
1.5
  0
ENDBLK
  5
696
  8
0
  0
BLOCK
  8
0
  2
*U39
 70
     1
 10
0.0
 20
0.0
 30
0.0
  3
*U39
  1

  0
INSERT
  5
69B
  8
0
  6
BYBLOCK
 62
     0
  2
*U38
 10
751.36936812707472
 20
-123.1387107051996
 30
0.0
 50
90.0
  0
INSERT
  5
69C
  8
0
  6
BYBLOCK
 62
     0
  2
*U38
 10
763.86936812707472
 20
-110.6387107051996
 30
0.0
 50
180.0
  0
INSERT
  5
69D
  8
0
  6
BYBLOCK
 62
     0
  2
*U38
 10
751.36936812707472
 20
-98.138710705199628
 30
0.0
 50
270.0
  0
INSERT
  5
69E
  8
0
  6
BYBLOCK
 62
     0
  2
*U38
 10
738.86936812707472
 20
-110.6387107051996
 30
0.0
  0
ENDBLK
  5
69F
  8
0
  0
BLOCK
  8
0
  2
*U41
 70
     1
 10
0.0
 20
0.0
 30
0.0
  3
*U41
  1

  0
CIRCLE
  5
6E0
  8
0
 10
-5.0
 20
0.0
 30
0.0
 40
1.5
  0
ENDBLK
  5
6E1
  8
0
  0
BLOCK
  8
0
  2
*U42
 70
     1
 10
0.0
 20
0.0
 30
0.0
  3
*U42
  1

  0
INSERT
  5
6E6
  8
0
  6
BYBLOCK
 62
     0
  2
*U41
 10
751.36936812707472
 20
-123.1387107051996
 30
0.0
 50
90.0
  0
INSERT
  5
6E7
  8
0
  6
BYBLOCK
 62
     0
  2
*U41
 10
763.86936812707472
 20
-110.6387107051996
 30
0.0
 50
180.0
  0
INSERT
  5
6E8
  8
0
  6
BYBLOCK
 62
     0
  2
*U41
 10
751.36936812707472
 20
-98.138710705199628
 30
0.0
 50
270.0
  0
INSERT
  5
6E9
  8
0
  6
BYBLOCK
 62
     0
  2
*U41
 10
738.86936812707472
 20
-110.6387107051996
 30
0.0
  0
ENDBLK
  5
6EA
  8
0
  0
BLOCK
  8
0
  2
A$C3D6F235A
 70
     0
 10
0.0
 20
0.0
 30
0.0
  3
A$C3D6F235A
  1

  0
CIRCLE
  5
6FF
  8
0
 10
6.0000023036423036
 20
6.0000002461463282
 30
0.0
 40
6.0
  0
CIRCLE
  5
700
  8
0
 10
6.0000023036423036
 20
6.0000002461463282
 30
0.0
 40
3.1749999999999989
  0
ENDBLK
  5
704
  8
0
  0
BLOCK
  8
0
  2
*U46
 70
     1
 10
0.0
 20
0.0
 30
0.0
  3
*U46
  1

  0
CIRCLE
  5
787
  8
0
 10
-5.0
 20
0.0
 30
0.0
 40
1.5
  0
ENDBLK
  5
788
  8
0
  0
BLOCK
  8
0
  2
*U47
 70
     1
 10
0.0
 20
0.0
 30
0.0
  3
*U47
  1

  0
INSERT
  5
78D
  8
0
  6
BYBLOCK
 62
     0
  2
*U46
 10
751.36936812707472
 20
-123.1387107051996
 30
0.0
 50
90.0
  0
INSERT
  5
78E
  8
0
  6
BYBLOCK
 62
     0
  2
*U46
 10
763.86936812707472
 20
-110.6387107051996
 30
0.0
 50
180.0
  0
INSERT
  5
78F
  8
0
  6
BYBLOCK
 62
     0
  2
*U46
 10
751.36936812707472
 20
-98.138710705199628
 30
0.0
 50
270.0
  0
INSERT
  5
790
  8
0
  6
BYBLOCK
 62
     0
  2
*U46
 10
738.86936812707472
 20
-110.6387107051996
 30
0.0
  0
ENDBLK
  5
791
  8
0
  0
BLOCK
  8
0
  2
*U48
 70
     1
 10
0.0
 20
0.0
 30
0.0
  3
*U48
  1

  0
CIRCLE
  5
794
  8
0
 10
-5.0
 20
0.0
 30
0.0
 40
1.5
  0
ENDBLK
  5
795
  8
0
  0
BLOCK
  8
0
  2
*U49
 70
     1
 10
0.0
 20
0.0
 30
0.0
  3
*U49
  1

  0
INSERT
  5
798
  8
0
  6
BYBLOCK
 62
     0
  2
*U48
 10
751.36936812707472
 20
-123.1387107051996
 30
0.0
 50
90.0
  0
INSERT
  5
799
  8
0
  6
BYBLOCK
 62
     0
  2
*U48
 10
763.86936812707472
 20
-110.6387107051996
 30
0.0
 50
180.0
  0
INSERT
  5
79A
  8
0
  6
BYBLOCK
 62
     0
  2
*U48
 10
751.36936812707472
 20
-98.138710705199628
 30
0.0
 50
270.0
  0
INSERT
  5
79B
  8
0
  6
BYBLOCK
 62
     0
  2
*U48
 10
738.86936812707472
 20
-110.6387107051996
 30
0.0
  0
ENDBLK
  5
79C
  8
0
  0
BLOCK
  8
0
  2
*U50
 70
     1
 10
0.0
 20
0.0
 30
0.0
  3
*U50
  1

  0
CIRCLE
  5
7CC
  8
0
 10
-5.0
 20
0.0
 30
0.0
 40
1.5
  0
ENDBLK
  5
7CD
  8
0
  0
BLOCK
  8
0
  2
*U52
 70
     1
 10
0.0
 20
0.0
 30
0.0
  3
*U52
  1

  0
CIRCLE
  5
7F5
  8
0
 10
-5.0
 20
0.0
 30
0.0
 40
1.5
  0
ENDBLK
  5
7F6
  8
0
  0
BLOCK
  8
0
  2
*U53
 70
     1
 10
0.0
 20
0.0
 30
0.0
  3
*U53
  1

  0
INSERT
  5
7FB
  8
0
  6
BYBLOCK
 62
     0
  2
*U52
 10
751.36936812707472
 20
-123.1387107051996
 30
0.0
 50
90.0
  0
INSERT
  5
7FC
  8
0
  6
BYBLOCK
 62
     0
  2
*U52
 10
763.86936812707472
 20
-110.6387107051996
 30
0.0
 50
180.0
  0
INSERT
  5
7FD
  8
0
  6
BYBLOCK
 62
     0
  2
*U52
 10
751.36936812707472
 20
-98.138710705199628
 30
0.0
 50
270.0
  0
INSERT
  5
7FE
  8
0
  6
BYBLOCK
 62
     0
  2
*U52
 10
738.86936812707472
 20
-110.6387107051996
 30
0.0
  0
ENDBLK
  5
7FF
  8
0
  0
BLOCK
  8
0
  2
*U54
 70
     1
 10
0.0
 20
0.0
 30
0.0
  3
*U54
  1

  0
CIRCLE
  5
80C
  8
0
 10
-5.0
 20
0.0
 30
0.0
 40
1.5
  0
ENDBLK
  5
80D
  8
0
  0
BLOCK
  8
0
  2
*U56
 70
     1
 10
0.0
 20
0.0
 30
0.0
  3
*U56
  1

  0
CIRCLE
  5
817
  8
0
 10
-5.0
 20
0.0
 30
0.0
 40
1.5
  0
ENDBLK
  5
818
  8
0
  0
BLOCK
  8
0
  2
*U58
 70
     1
 10
0.0
 20
0.0
 30
0.0
  3
*U58
  1

  0
CIRCLE
  5
84C
  8
0
 10
-5.0
 20
0.0
 30
0.0
 40
1.5
  0
ENDBLK
  5
84D
  8
0
  0
BLOCK
  8
0
  2
*U59
 70
     1
 10
0.0
 20
0.0
 30
0.0
  3
*U59
  1

  0
INSERT
  5
852
  8
0
  6
BYBLOCK
 62
     0
  2
*U58
 10
751.36936812707472
 20
-123.1387107051996
 30
0.0
 50
90.0
  0
INSERT
  5
853
  8
0
  6
BYBLOCK
 62
     0
  2
*U58
 10
763.86936812707472
 20
-110.6387107051996
 30
0.0
 50
180.0
  0
INSERT
  5
854
  8
0
  6
BYBLOCK
 62
     0
  2
*U58
 10
751.36936812707472
 20
-98.138710705199628
 30
0.0
 50
270.0
  0
INSERT
  5
855
  8
0
  6
BYBLOCK
 62
     0
  2
*U58
 10
738.86936812707472
 20
-110.6387107051996
 30
0.0
  0
ENDBLK
  5
856
  8
0
  0
BLOCK
  8
0
  2
*U60
 70
     1
 10
0.0
 20
0.0
 30
0.0
  3
*U60
  1

  0
CIRCLE
  5
859
  8
0
 10
-5.0
 20
0.0
 30
0.0
 40
1.5
  0
ENDBLK
  5
85A
  8
0
  0
BLOCK
  8
0
  2
*U61
 70
     1
 10
0.0
 20
0.0
 30
0.0
  3
*U61
  1

  0
INSERT
  5
85D
  8
0
  6
BYBLOCK
 62
     0
  2
*U60
 10
751.36936812707472
 20
-123.1387107051996
 30
0.0
 50
90.0
  0
INSERT
  5
85E
  8
0
  6
BYBLOCK
 62
     0
  2
*U60
 10
763.86936812707472
 20
-110.6387107051996
 30
0.0
 50
180.0
  0
INSERT
  5
85F
  8
0
  6
BYBLOCK
 62
     0
  2
*U60
 10
751.36936812707472
 20
-98.138710705199628
 30
0.0
 50
270.0
  0
INSERT
  5
860
  8
0
  6
BYBLOCK
 62
     0
  2
*U60
 10
738.86936812707472
 20
-110.6387107051996
 30
0.0
  0
ENDBLK
  5
861
  8
0
  0
BLOCK
  8
0
  2
*U62
 70
     1
 10
0.0
 20
0.0
 30
0.0
  3
*U62
  1

  0
CIRCLE
  5
88A
  8
0
 10
-5.0
 20
0.0
 30
0.0
 40
1.5
  0
ENDBLK
  5
88B
  8
0
  0
BLOCK
  8
0
  2
*U64
 70
     1
 10
0.0
 20
0.0
 30
0.0
  3
*U64
  1

  0
CIRCLE
  5
8BD
  8
0
 10
-5.0
 20
0.0
 30
0.0
 40
1.5
  0
ENDBLK
  5
8BE
  8
0
  0
BLOCK
  8
0
  2
*U65
 70
     1
 10
0.0
 20
0.0
 30
0.0
  3
*U65
  1

  0
INSERT
  5
8C3
  8
0
  6
BYBLOCK
 62
     0
  2
*U64
 10
751.36936812707472
 20
-123.1387107051996
 30
0.0
 50
90.0
  0
INSERT
  5
8C4
  8
0
  6
BYBLOCK
 62
     0
  2
*U64
 10
763.86936812707472
 20
-110.6387107051996
 30
0.0
 50
180.0
  0
INSERT
  5
8C5
  8
0
  6
BYBLOCK
 62
     0
  2
*U64
 10
751.36936812707472
 20
-98.138710705199628
 30
0.0
 50
270.0
  0
INSERT
  5
8C6
  8
0
  6
BYBLOCK
 62
     0
  2
*U64
 10
738.86936812707472
 20
-110.6387107051996
 30
0.0
  0
ENDBLK
  5
8C7
  8
0
  0
BLOCK
  8
0
  2
*U66
 70
     1
 10
0.0
 20
0.0
 30
0.0
  3
*U66
  1

  0
CIRCLE
  5
8D4
  8
0
 10
-5.0
 20
0.0
 30
0.0
 40
1.5
  0
ENDBLK
  5
8D5
  8
0
  0
BLOCK
  8
0
  2
*U68
 70
     1
 10
0.0
 20
0.0
 30
0.0
  3
*U68
  1

  0
CIRCLE
  5
8DF
  8
0
 10
-5.0
 20
0.0
 30
0.0
 40
1.5
  0
ENDBLK
  5
8E0
  8
0
  0
BLOCK
  8
0
  2
*U70
 70
     1
 10
0.0
 20
0.0
 30
0.0
  3
*U70
  1

  0
CIRCLE
  5
914
  8
0
 10
-5.0
 20
0.0
 30
0.0
 40
1.5
  0
ENDBLK
  5
915
  8
0
  0
BLOCK
  8
0
  2
*U71
 70
     1
 10
0.0
 20
0.0
 30
0.0
  3
*U71
  1

  0
INSERT
  5
91A
  8
0
  6
BYBLOCK
 62
     0
  2
*U70
 10
751.36936812707472
 20
-123.1387107051996
 30
0.0
 50
90.0
  0
INSERT
  5
91B
  8
0
  6
BYBLOCK
 62
     0
  2
*U70
 10
763.86936812707472
 20
-110.6387107051996
 30
0.0
 50
180.0
  0
INSERT
  5
91C
  8
0
  6
BYBLOCK
 62
     0
  2
*U70
 10
751.36936812707472
 20
-98.138710705199628
 30
0.0
 50
270.0
  0
INSERT
  5
91D
  8
0
  6
BYBLOCK
 62
     0
  2
*U70
 10
738.86936812707472
 20
-110.6387107051996
 30
0.0
  0
ENDBLK
  5
91E
  8
0
  0
BLOCK
  8
0
  2
*U72
 70
     1
 10
0.0
 20
0.0
 30
0.0
  3
*U72
  1

  0
CIRCLE
  5
921
  8
0
 10
-5.0
 20
0.0
 30
0.0
 40
1.5
  0
ENDBLK
  5
922
  8
0
  0
BLOCK
  8
0
  2
*U73
 70
     1
 10
0.0
 20
0.0
 30
0.0
  3
*U73
  1

  0
INSERT
  5
925
  8
0
  6
BYBLOCK
 62
     0
  2
*U72
 10
751.36936812707472
 20
-123.1387107051996
 30
0.0
 50
90.0
  0
INSERT
  5
926
  8
0
  6
BYBLOCK
 62
     0
  2
*U72
 10
763.86936812707472
 20
-110.6387107051996
 30
0.0
 50
180.0
  0
INSERT
  5
927
  8
0
  6
BYBLOCK
 62
     0
  2
*U72
 10
751.36936812707472
 20
-98.138710705199628
 30
0.0
 50
270.0
  0
INSERT
  5
928
  8
0
  6
BYBLOCK
 62
     0
  2
*U72
 10
738.86936812707472
 20
-110.6387107051996
 30
0.0
  0
ENDBLK
  5
929
  8
0
  0
BLOCK
  8
0
  2
*U74
 70
     1
 10
0.0
 20
0.0
 30
0.0
  3
*U74
  1

  0
CIRCLE
  5
956
  8
0
 10
0.0
 20
0.0
 30
0.0
 40
1.5
  0
ENDBLK
  5
957
  8
0
  0
BLOCK
  8
0
  2
*U76
 70
     1
 10
0.0
 20
0.0
 30
0.0
  3
*U76
  1

  0
CIRCLE
  5
983
  8
0
 10
0.0
 20
0.0
 30
0.0
 40
1.5
  0
ENDBLK
  5
984
  8
0
  0
BLOCK
  8
0
  2
*U77
 70
     1
 10
0.0
 20
0.0
 30
0.0
  3
*U77
  1

  0
INSERT
  5
989
  8
0
  6
BYBLOCK
 62
     0
  2
*U76
 10
1421.305634025729
 20
-512.46991599830608
 30
0.0
  0
INSERT
  5
98A
  8
0
  6
BYBLOCK
 62
     0
  2
*U76
 10
1440.180634025729
 20
-545.16237499116858
 30
0.0
 50
59.999999999999993
  0
INSERT
  5
98B
  8
0
  6
BYBLOCK
 62
     0
  2
*U76
 10
1477.930634025729
 20
-545.16237499116869
 30
0.0
 41
0.9999999999999998
 42
0.9999999999999998
 43
0.9999999999999998
 50
119.9999999999999
  0
INSERT
  5
98C
  8
0
  6
BYBLOCK
 62
     0
  2
*U76
 10
1496.805634025729
 20
-512.46991599830608
 30
0.0
 50
180.0
  0
INSERT
  5
98D
  8
0
  6
BYBLOCK
 62
     0
  2
*U76
 10
1477.930634025729
 20
-479.77745700544352
 30
0.0
 41
1.0
 42
1.0
 43
1.0
 50
240.0
  0
INSERT
  5
98E
  8
0
  6
BYBLOCK
 62
     0
  2
*U76
 10
1440.180634025729
 20
-479.77745700544352
 30
0.0
 41
0.9999999999999998
 42
0.9999999999999998
 43
0.9999999999999998
 50
300.0
  0
ENDBLK
  5
98F
  8
0
  0
BLOCK
  8
0
  2
*U78
 70
     1
 10
0.0
 20
0.0
 30
0.0
  3
*U78
  1

  0
CIRCLE
  5
99C
  8
0
 10
0.0
 20
0.0
 30
0.0
 40
1.5
  0
ENDBLK
  5
99D
  8
0
  0
BLOCK
  8
0
  2
*U80
 70
     1
 10
0.0
 20
0.0
 30
0.0
  3
*U80
  1

  0
CIRCLE
  5
9C3
  8
0
 10
0.0
 20
0.0
 30
0.0
 40
1.5
  0
ENDBLK
  5
9C4
  8
0
  0
BLOCK
  8
0
  2
*U81
 70
     1
 10
0.0
 20
0.0
 30
0.0
  3
*U81
  1

  0
INSERT
  5
9C9
  8
0
  6
BYBLOCK
 62
     0
  2
*U80
 10
1421.305634025729
 20
-512.46991599830608
 30
0.0
  0
INSERT
  5
9CA
  8
0
  6
BYBLOCK
 62
     0
  2
*U80
 10
1440.180634025729
 20
-545.16237499116858
 30
0.0
 50
59.999999999999993
  0
INSERT
  5
9CB
  8
0
  6
BYBLOCK
 62
     0
  2
*U80
 10
1477.930634025729
 20
-545.16237499116869
 30
0.0
 41
0.9999999999999998
 42
0.9999999999999998
 43
0.9999999999999998
 50
119.9999999999999
  0
INSERT
  5
9CC
  8
0
  6
BYBLOCK
 62
     0
  2
*U80
 10
1496.805634025729
 20
-512.46991599830608
 30
0.0
 50
180.0
  0
INSERT
  5
9CD
  8
0
  6
BYBLOCK
 62
     0
  2
*U80
 10
1477.930634025729
 20
-479.77745700544352
 30
0.0
 41
1.0
 42
1.0
 43
1.0
 50
240.0
  0
INSERT
  5
9CE
  8
0
  6
BYBLOCK
 62
     0
  2
*U80
 10
1440.180634025729
 20
-479.77745700544352
 30
0.0
 41
0.9999999999999998
 42
0.9999999999999998
 43
0.9999999999999998
 50
300.0
  0
ENDBLK
  5
9CF
  8
0
  0
BLOCK
  8
0
  2
*U82
 70
     1
 10
0.0
 20
0.0
 30
0.0
  3
*U82
  1

  0
CIRCLE
  5
9DC
  8
0
 10
0.0
 20
0.0
 30
0.0
 40
1.5
  0
ENDBLK
  5
9DD
  8
0
  0
BLOCK
  8
0
  2
*U84
 70
     1
 10
0.0
 20
0.0
 30
0.0
  3
*U84
  1

  0
CIRCLE
  5
A0B
  8
0
 10
0.0
 20
0.0
 30
0.0
 40
1.5
  0
ENDBLK
  5
A0C
  8
0
  0
BLOCK
  8
0
  2
*U85
 70
     1
 10
0.0
 20
0.0
 30
0.0
  3
*U85
  1

  0
INSERT
  5
A11
  8
0
  6
BYBLOCK
 62
     0
  2
*U84
 10
1421.305634025729
 20
-512.46991599830608
 30
0.0
  0
INSERT
  5
A12
  8
0
  6
BYBLOCK
 62
     0
  2
*U84
 10
1440.180634025729
 20
-545.16237499116858
 30
0.0
 50
59.999999999999993
  0
INSERT
  5
A13
  8
0
  6
BYBLOCK
 62
     0
  2
*U84
 10
1477.930634025729
 20
-545.16237499116869
 30
0.0
 41
0.9999999999999998
 42
0.9999999999999998
 43
0.9999999999999998
 50
119.9999999999999
  0
INSERT
  5
A14
  8
0
  6
BYBLOCK
 62
     0
  2
*U84
 10
1496.805634025729
 20
-512.46991599830608
 30
0.0
 50
180.0
  0
INSERT
  5
A15
  8
0
  6
BYBLOCK
 62
     0
  2
*U84
 10
1477.930634025729
 20
-479.77745700544352
 30
0.0
 41
1.0
 42
1.0
 43
1.0
 50
240.0
  0
INSERT
  5
A16
  8
0
  6
BYBLOCK
 62
     0
  2
*U84
 10
1440.180634025729
 20
-479.77745700544352
 30
0.0
 41
0.9999999999999998
 42
0.9999999999999998
 43
0.9999999999999998
 50
300.0
  0
ENDBLK
  5
A17
  8
0
  0
BLOCK
  8
0
  2
*U86
 70
     1
 10
0.0
 20
0.0
 30
0.0
  3
*U86
  1

  0
CIRCLE
  5
A24
  8
0
 10
0.0
 20
0.0
 30
0.0
 40
1.5
  0
ENDBLK
  5
A25
  8
0
  0
BLOCK
  8
0
  2
*U88
 70
     1
 10
0.0
 20
0.0
 30
0.0
  3
*U88
  1

  0
CIRCLE
  5
A53
  8
0
 10
0.0
 20
0.0
 30
0.0
 40
1.5
  0
ENDBLK
  5
A54
  8
0
  0
BLOCK
  8
0
  2
*U89
 70
     1
 10
0.0
 20
0.0
 30
0.0
  3
*U89
  1

  0
INSERT
  5
A59
  8
0
  6
BYBLOCK
 62
     0
  2
*U88
 10
1421.305634025729
 20
-512.46991599830608
 30
0.0
  0
INSERT
  5
A5A
  8
0
  6
BYBLOCK
 62
     0
  2
*U88
 10
1440.180634025729
 20
-545.16237499116858
 30
0.0
 50
59.999999999999993
  0
INSERT
  5
A5B
  8
0
  6
BYBLOCK
 62
     0
  2
*U88
 10
1477.930634025729
 20
-545.16237499116869
 30
0.0
 41
0.9999999999999998
 42
0.9999999999999998
 43
0.9999999999999998
 50
119.9999999999999
  0
INSERT
  5
A5C
  8
0
  6
BYBLOCK
 62
     0
  2
*U88
 10
1496.805634025729
 20
-512.46991599830608
 30
0.0
 50
180.0
  0
INSERT
  5
A5D
  8
0
  6
BYBLOCK
 62
     0
  2
*U88
 10
1477.930634025729
 20
-479.77745700544352
 30
0.0
 41
1.0
 42
1.0
 43
1.0
 50
240.0
  0
INSERT
  5
A5E
  8
0
  6
BYBLOCK
 62
     0
  2
*U88
 10
1440.180634025729
 20
-479.77745700544352
 30
0.0
 41
0.9999999999999998
 42
0.9999999999999998
 43
0.9999999999999998
 50
300.0
  0
ENDBLK
  5
A5F
  8
0
  0
BLOCK
  8
0
  2
*U90
 70
     1
 10
0.0
 20
0.0
 30
0.0
  3
*U90
  1

  0
CIRCLE
  5
A6C
  8
0
 10
0.0
 20
0.0
 30
0.0
 40
1.5
  0
ENDBLK
  5
A6D
  8
0
  0
BLOCK
  8
0
  2
*U92
 70
     1
 10
0.0
 20
0.0
 30
0.0
  3
*U92
  1

  0
CIRCLE
  5
A93
  8
0
 10
0.0
 20
0.0
 30
0.0
 40
1.5
  0
ENDBLK
  5
A94
  8
0
  0
BLOCK
  8
0
  2
*U93
 70
     1
 10
0.0
 20
0.0
 30
0.0
  3
*U93
  1

  0
INSERT
  5
A99
  8
0
  6
BYBLOCK
 62
     0
  2
*U92
 10
1421.305634025729
 20
-512.46991599830608
 30
0.0
  0
INSERT
  5
A9A
  8
0
  6
BYBLOCK
 62
     0
  2
*U92
 10
1440.180634025729
 20
-545.16237499116858
 30
0.0
 50
59.999999999999993
  0
INSERT
  5
A9B
  8
0
  6
BYBLOCK
 62
     0
  2
*U92
 10
1477.930634025729
 20
-545.16237499116869
 30
0.0
 41
0.9999999999999998
 42
0.9999999999999998
 43
0.9999999999999998
 50
119.9999999999999
  0
INSERT
  5
A9C
  8
0
  6
BYBLOCK
 62
     0
  2
*U92
 10
1496.805634025729
 20
-512.46991599830608
 30
0.0
 50
180.0
  0
INSERT
  5
A9D
  8
0
  6
BYBLOCK
 62
     0
  2
*U92
 10
1477.930634025729
 20
-479.77745700544352
 30
0.0
 41
1.0
 42
1.0
 43
1.0
 50
240.0
  0
INSERT
  5
A9E
  8
0
  6
BYBLOCK
 62
     0
  2
*U92
 10
1440.180634025729
 20
-479.77745700544352
 30
0.0
 41
0.9999999999999998
 42
0.9999999999999998
 43
0.9999999999999998
 50
300.0
  0
ENDBLK
  5
A9F
  8
0
  0
BLOCK
  8
0
  2
*U94
 70
     1
 10
0.0
 20
0.0
 30
0.0
  3
*U94
  1

  0
CIRCLE
  5
AAC
  8
0
 10
0.0
 20
0.0
 30
0.0
 40
1.5
  0
ENDBLK
  5
AAD
  8
0
  0
BLOCK
  8
0
  2
*U96
 70
     1
 10
0.0
 20
0.0
 30
0.0
  3
*U96
  1

  0
CIRCLE
  5
AD7
  8
0
 10
0.0
 20
0.0
 30
0.0
 40
1.5
  0
ENDBLK
  5
AD8
  8
0
  0
BLOCK
  8
0
  2
*U97
 70
     1
 10
0.0
 20
0.0
 30
0.0
  3
*U97
  1

  0
INSERT
  5
ADD
  8
0
  6
BYBLOCK
 62
     0
  2
*U96
 10
1421.305634025729
 20
-512.46991599830608
 30
0.0
  0
INSERT
  5
ADE
  8
0
  6
BYBLOCK
 62
     0
  2
*U96
 10
1440.180634025729
 20
-545.16237499116858
 30
0.0
 50
59.999999999999993
  0
INSERT
  5
ADF
  8
0
  6
BYBLOCK
 62
     0
  2
*U96
 10
1477.930634025729
 20
-545.16237499116869
 30
0.0
 41
0.9999999999999998
 42
0.9999999999999998
 43
0.9999999999999998
 50
119.9999999999999
  0
INSERT
  5
AE0
  8
0
  6
BYBLOCK
 62
     0
  2
*U96
 10
1496.805634025729
 20
-512.46991599830608
 30
0.0
 50
180.0
  0
INSERT
  5
AE1
  8
0
  6
BYBLOCK
 62
     0
  2
*U96
 10
1477.930634025729
 20
-479.77745700544352
 30
0.0
 41
1.0
 42
1.0
 43
1.0
 50
240.0
  0
INSERT
  5
AE2
  8
0
  6
BYBLOCK
 62
     0
  2
*U96
 10
1440.180634025729
 20
-479.77745700544352
 30
0.0
 41
0.9999999999999998
 42
0.9999999999999998
 43
0.9999999999999998
 50
300.0
  0
ENDBLK
  5
AE3
  8
0
  0
BLOCK
  8
0
  2
*U98
 70
     1
 10
0.0
 20
0.0
 30
0.0
  3
*U98
  1

  0
TEXT
  5
EEC
  8
0
 10
282.11896447394611
 20
787.09638630456902
 30
0.0
 40
10.0
  1
Indent, not cut
  0
ENDBLK
  5
EEE
  8
0
  0
ENDSEC
  0
SECTION
  2
ENTITIES
  0
ARC
  5
1FD
  8
0
 10
326.35347012493338
 20
727.53086248256147
 30
0.0
 40
456.50351399806669
 50
68.472816344825816
 51
91.163069317428224
  0
ARC
  5
1FE
  8
0
 10
317.08736411004787
 20
1152.1903251056581
 30
0.0
 40
31.750000000000028
 50
90.0
 51
270.0
  0
ARC
  5
1FF
  8
0
 10
326.35347012493338
 20
1576.849787728755
 30
0.0
 40
456.50351399806669
 50
268.83693068257168
 51
291.52718365517421
  0
CIRCLE
  5
202
  8
0
 10
317.08736411004787
 20
1152.1903251056581
 30
0.0
 40
9.0
  0
LINE
  5
247
  8
0
 10
140.31066411004849
 20
1058.8063530140039
 30
0.0
 11
317.08736411004787
 21
1058.8063530140039
 31
0.0
  0
ARC
  5
251
  8
0
 10
140.31066411004849
 20
1027.0563530140039
 30
0.0
 40
31.750000000000028
 50
90.0
 51
270.0
  0
ARC
  5
252
  8
0
 10
317.08736411004787
 20
1027.0563530140039
 30
0.0
 40
31.750000000000028
 50
270.0
 51
90.0
  0
LINE
  5
253
  8
0
 10
140.31066411004849
 20
995.30635301400446
 30
0.0
 11
317.08736411004787
 21
995.30635301400446
 31
0.0
  0
CIRCLE
  5
25E
  8
0
 10
317.08736411004787
 20
1027.0563530140039
 30
0.0
 40
6.5
  0
CIRCLE
  5
25F
  8
0
 10
317.08736411004787
 20
1027.0563530140039
 30
0.0
 40
3.1749999999999989
  0
CIRCLE
  5
260
  8
0
 10
294.07736411004788
 20
1027.0563530140039
 30
0.0
 40
2.794999999999999
  0
CIRCLE
  5
261
  8
0
 10
340.09736411004792
 20
1027.0563530140039
 30
0.0
 40
2.794999999999999
  0
INSERT
  5
2CB
  8
0
  2
*U5
 10
-434.28200401702668
 20
1262.8290358108579
 30
0.0
  0
CIRCLE
  5
304
  8
0
 10
140.31066411004849
 20
1027.0563530140039
 30
0.0
 40
9.0
  0
INSERT
  5
305
  8
0
  2
*U8
 10
-611.05870401702623
 20
1137.695063719204
 30
0.0
  0
CIRCLE
  5
341
  8
0
 10
140.31066411004849
 20
963.65972390490651
 30
0.0
 40
25.0
  0
CIRCLE
  5
342
  8
0
 10
140.31066411004849
 20
963.65972390490651
 30
0.0
 40
3.1749999999999989
  0
INSERT
  5
343
  8
0
  2
*U11
 10
-611.05870401702623
 20
1074.2984346101059
 30
0.0
  0
ARC
  5
394
  8
0
 10
140.31066411004849
 20
898.38531402524154
 30
0.0
 40
31.750000000000028
 50
0.0
 51
180.0
  0
POLYLINE
  5
3E5
  8
0
 66
     1
 10
0.0
 20
0.0
 30
0.0
  0
VERTEX
  5
E6D
  8
0
 10
172.06066411004849
 20
898.38531402524154
 30
0.0
  0
VERTEX
  5
E6E
  8
0
 10
172.06066411004849
 20
851.63531402524166
 30
0.0
  0
VERTEX
  5
E6F
  8
0
 10
167.06066411004849
 20
846.63531402524154
 30
0.0
  0
VERTEX
  5
E70
  8
0
 10
150.89399744338161
 20
846.63531402524154
 30
0.0
  0
VERTEX
  5
E71
  8
0
 10
150.89399744338181
 20
861.63531402524166
 30
0.0
  0
VERTEX
  5
E72
  8
0
 10
129.72733077671509
 20
861.63531402524166
 30
0.0
  0
VERTEX
  5
E73
  8
0
 10
129.72733077671509
 20
846.63531402524154
 30
0.0
  0
VERTEX
  5
E74
  8
0
 10
113.56066411004851
 20
846.63531402524154
 30
0.0
  0
VERTEX
  5
E75
  8
0
 10
108.56066411004851
 20
851.63531402524166
 30
0.0
  0
VERTEX
  5
E76
  8
0
 10
108.56066411004851
 20
898.38531402524154
 30
0.0
  0
SEQEND
  5
E77
  8
0
  0
CIRCLE
  5
3F7
  8
0
 10
140.31066411004849
 20
898.38531402524154
 30
0.0
 40
6.5
  0
CIRCLE
  5
3F8
  8
0
 10
140.31066411004849
 20
898.38531402524154
 30
0.0
 40
3.1749999999999989
  0
CIRCLE
  5
3F9
  8
0
 10
117.3006641100485
 20
898.38531402524154
 30
0.0
 40
2.794999999999999
  0
CIRCLE
  5
3FA
  8
0
 10
163.32066411004851
 20
898.38531402524154
 30
0.0
 40
2.794999999999999
  0
CIRCLE
  5
40A
  8
0
 10
119.14399744338171
 20
854.13531402524143
 30
0.0
 40
1.5
  0
CIRCLE
  5
40B
  8
0
 10
161.47733077671509
 20
854.13531402524143
 30
0.0
 40
1.5
  0
POLYLINE
  8
LAYER_1
  5
EEF
  66
     1
 10
0.000000
 20
0.000000
 30
0.000000
  70
     8
  0
VERTEX
  8
LAYER_1
  5
EF0
 10
310.233
 20
215.066
 30
0.000000
  70
    32
  0
VERTEX
  8
LAYER_1
  5
EF1
 10
310.237
 20
215.070
 30
0.000000
  70
    32
  0
VERTEX
  8
LAYER_1
  5
EF2
 10
310.248
 20
215.082
 30
0.000000
  70
    32
  0
VERTEX
  8
LAYER_1
  5
EF3
 10
310.268
 20
215.101
 30
0.000000
  70
    32
  0
VERTEX
  8
LAYER_1
  5
EF4
 10
310.295
 20
215.128
 30
0.000000
  70
    32
  0
VERTEX
  8
LAYER_1
  5
EF5
 10
310.329
 20
215.162
 30
0.000000
  70
    32
  0
VERTEX
  8
LAYER_1
  5
EF6
 10
310.370
 20
215.204
 30
0.000000
  70
    32
  0
VERTEX
  8
LAYER_1
  5
EF7
 10
310.419
 20
215.252
 30
0.000000
  70
    32
  0
VERTEX
  8
LAYER_1
  5
EF8
 10
310.475
 20
215.308
 30
0.000000
  70
    32
  0
VERTEX
  8
LAYER_1
  5
EF9
 10
310.537
 20
215.371
 30
0.000000
  70
    32
  0
VERTEX
  8
LAYER_1
  5
EFA
 10
310.607
 20
215.440
 30
0.000000
  70
    32
  0
VERTEX
  8
LAYER_1
  5
EFB
 10
310.683
 20
215.516
 30
0.000000
  70
    32
  0
VERTEX
  8
LAYER_1
  5
EFC
 10
310.765
 20
215.599
 30
0.000000
  70
    32
  0
VERTEX
  8
LAYER_1
  5
EFD
 10
310.854
 20
215.687
 30
0.000000
  70
    32
  0
VERTEX
  8
LAYER_1
  5
EFE
 10
310.949
 20
215.783
 30
0.000000
  70
    32
  0
VERTEX
  8
LAYER_1
  5
EFF
 10
311.051
 20
215.884
 30
0.000000
  70
    32
  0
VERTEX
  8
LAYER_1
  5
F00
 10
311.158
 20
215.991
 30
0.000000
  70
    32
  0
VERTEX
  8
LAYER_1
  5
F01
 10
311.271
 20
216.105
 30
0.000000
  70
    32
  0
VERTEX
  8
LAYER_1
  5
F02
 10
311.390
 20
216.224
 30
0.000000
  70
    32
  0
VERTEX
  8
LAYER_1
  5
F03
 10
311.515
 20
216.348
 30
0.000000
  70
    32
  0
VERTEX
  8
LAYER_1
  5
F04
 10
311.645
 20
216.479
 30
0.000000
  70
    32
  0
VERTEX
  8
LAYER_1
  5
F05
 10
311.781
 20
216.614
 30
0.000000
  70
    32
  0
VERTEX
  8
LAYER_1
  5
F06
 10
311.922
 20
216.755
 30
0.000000
  70
    32
  0
VERTEX
  8
LAYER_1
  5
F07
 10
312.068
 20
216.901
 30
0.000000
  70
    32
  0
VERTEX
  8
LAYER_1
  5
F08
 10
312.219
 20
217.053
 30
0.000000
  70
    32
  0
VERTEX
  8
LAYER_1
  5
F09
 10
312.375
 20
217.209
 30
0.000000
  70
    32
  0
VERTEX
  8
LAYER_1
  5
F0A
 10
312.536
 20
217.369
 30
0.000000
  70
    32
  0
VERTEX
  8
LAYER_1
  5
F0B
 10
312.701
 20
217.535
 30
0.000000
  70
    32
  0
VERTEX
  8
LAYER_1
  5
F0C
 10
312.871
 20
217.705
 30
0.000000
  70
    32
  0
VERTEX
  8
LAYER_1
  5
F0D
 10
313.046
 20
217.879
 30
0.000000
  70
    32
  0
VERTEX
  8
LAYER_1
  5
F0E
 10
313.225
 20
218.058
 30
0.000000
  70
    32
  0
VERTEX
  8
LAYER_1
  5
F0F
 10
313.408
 20
218.241
 30
0.000000
  70
    32
  0
VERTEX
  8
LAYER_1
  5
F10
 10
313.594
 20
218.428
 30
0.000000
  70
    32
  0
VERTEX
  8
LAYER_1
  5
F11
 10
313.785
 20
218.619
 30
0.000000
  70
    32
  0
VERTEX
  8
LAYER_1
  5
F12
 10
313.980
 20
218.813
 30
0.000000
  70
    32
  0
VERTEX
  8
LAYER_1
  5
F13
 10
314.178
 20
219.012
 30
0.000000
  70
    32
  0
VERTEX
  8
LAYER_1
  5
F14
 10
314.380
 20
219.213
 30
0.000000
  70
    32
  0
VERTEX
  8
LAYER_1
  5
F15
 10
314.585
 20
219.419
 30
0.000000
  70
    32
  0
VERTEX
  8
LAYER_1
  5
F16
 10
314.794
 20
219.627
 30
0.000000
  70
    32
  0
VERTEX
  8
LAYER_1
  5
F17
 10
315.005
 20
219.839
 30
0.000000
  70
    32
  0
VERTEX
  8
LAYER_1
  5
F18
 10
315.220
 20
220.054
 30
0.000000
  70
    32
  0
VERTEX
  8
LAYER_1
  5
F19
 10
315.438
 20
220.271
 30
0.000000
  70
    32
  0
VERTEX
  8
LAYER_1
  5
F1A
 10
315.658
 20
220.492
 30
0.000000
  70
    32
  0
VERTEX
  8
LAYER_1
  5
F1B
 10
315.882
 20
220.715
 30
0.000000
  70
    32
  0
VERTEX
  8
LAYER_1
  5
F1C
 10
316.107
 20
220.941
 30
0.000000
  70
    32
  0
VERTEX
  8
LAYER_1
  5
F1D
 10
316.335
 20
221.169
 30
0.000000
  70
    32
  0
VERTEX
  8
LAYER_1
  5
F1E
 10
316.566
 20
221.399
 30
0.000000
  70
    32
  0
VERTEX
  8
LAYER_1
  5
F1F
 10
316.798
 20
221.632
 30
0.000000
  70
    32
  0
VERTEX
  8
LAYER_1
  5
F20
 10
317.033
 20
221.866
 30
0.000000
  70
    32
  0
VERTEX
  8
LAYER_1
  5
F21
 10
317.270
 20
222.103
 30
0.000000
  70
    32
  0
VERTEX
  8
LAYER_1
  5
F22
 10
317.508
 20
222.341
 30
0.000000
  70
    32
  0
VERTEX
  8
LAYER_1
  5
F23
 10
317.748
 20
222.581
 30
0.000000
  70
    32
  0
VERTEX
  8
LAYER_1
  5
F24
 10
317.990
 20
222.823
 30
0.000000
  70
    32
  0
VERTEX
  8
LAYER_1
  5
F25
 10
318.233
 20
223.066
 30
0.000000
  70
    32
  0
VERTEX
  8
LAYER_1
  5
F26
 10
318.477
 20
223.310
 30
0.000000
  70
    32
  0
VERTEX
  8
LAYER_1
  5
F27
 10
318.722
 20
223.556
 30
0.000000
  70
    32
  0
VERTEX
  8
LAYER_1
  5
F28
 10
318.969
 20
223.802
 30
0.000000
  70
    32
  0
VERTEX
  8
LAYER_1
  5
F29
 10
319.216
 20
224.050
 30
0.000000
  70
    32
  0
VERTEX
  8
LAYER_1
  5
F2A
 10
319.465
 20
224.298
 30
0.000000
  70
    32
  0
VERTEX
  8
LAYER_1
  5
F2B
 10
319.714
 20
224.547
 30
0.000000
  70
    32
  0
VERTEX
  8
LAYER_1
  5
F2C
 10
319.963
 20
224.797
 30
0.000000
  70
    32
  0
VERTEX
  8
LAYER_1
  5
F2D
 10
320.213
 20
225.047
 30
0.000000
  70
    32
  0
VERTEX
  8
LAYER_1
  5
F2E
 10
320.464
 20
225.297
 30
0.000000
  70
    32
  0
VERTEX
  8
LAYER_1
  5
F2F
 10
320.714
 20
225.547
 30
0.000000
  70
    32
  0
VERTEX
  8
LAYER_1
  5
F30
 10
320.965
 20
225.798
 30
0.000000
  70
    32
  0
VERTEX
  8
LAYER_1
  5
F31
 10
321.215
 20
226.049
 30
0.000000
  70
    32
  0
VERTEX
  8
LAYER_1
  5
F32
 10
321.465
 20
226.299
 30
0.000000
  70
    32
  0
VERTEX
  8
LAYER_1
  5
F33
 10
321.715
 20
226.549
 30
0.000000
  70
    32
  0
VERTEX
  8
LAYER_1
  5
F34
 10
321.965
 20
226.798
 30
0.000000
  70
    32
  0
VERTEX
  8
LAYER_1
  5
F35
 10
322.214
 20
227.047
 30
0.000000
  70
    32
  0
VERTEX
  8
LAYER_1
  5
F36
 10
322.462
 20
227.296
 30
0.000000
  70
    32
  0
VERTEX
  8
LAYER_1
  5
F37
 10
322.710
 20
227.543
 30
0.000000
  70
    32
  0
VERTEX
  8
LAYER_1
  5
F38
 10
322.956
 20
227.790
 30
0.000000
  70
    32
  0
VERTEX
  8
LAYER_1
  5
F39
 10
323.202
 20
228.035
 30
0.000000
  70
    32
  0
VERTEX
  8
LAYER_1
  5
F3A
 10
323.446
 20
228.280
 30
0.000000
  70
    32
  0
VERTEX
  8
LAYER_1
  5
F3B
 10
323.689
 20
228.523
 30
0.000000
  70
    32
  0
VERTEX
  8
LAYER_1
  5
F3C
 10
323.931
 20
228.764
 30
0.000000
  70
    32
  0
VERTEX
  8
LAYER_1
  5
F3D
 10
324.171
 20
229.004
 30
0.000000
  70
    32
  0
VERTEX
  8
LAYER_1
  5
F3E
 10
324.409
 20
229.243
 30
0.000000
  70
    32
  0
VERTEX
  8
LAYER_1
  5
F3F
 10
324.646
 20
229.479
 30
0.000000
  70
    32
  0
VERTEX
  8
LAYER_1
  5
F40
 10
324.880
 20
229.714
 30
0.000000
  70
    32
  0
VERTEX
  8
LAYER_1
  5
F41
 10
325.113
 20
229.946
 30
0.000000
  70
    32
  0
VERTEX
  8
LAYER_1
  5
F42
 10
325.343
 20
230.177
 30
0.000000
  70
    32
  0
VERTEX
  8
LAYER_1
  5
F43
 10
325.572
 20
230.405
 30
0.000000
  70
    32
  0
VERTEX
  8
LAYER_1
  5
F44
 10
325.797
 20
230.631
 30
0.000000
  70
    32
  0
VERTEX
  8
LAYER_1
  5
F45
 10
326.020
 20
230.854
 30
0.000000
  70
    32
  0
VERTEX
  8
LAYER_1
  5
F46
 10
326.241
 20
231.074
 30
0.000000
  70
    32
  0
VERTEX
  8
LAYER_1
  5
F47
 10
326.458
 20
231.292
 30
0.000000
  70
    32
  0
VERTEX
  8
LAYER_1
  5
F48
 10
326.673
 20
231.507
 30
0.000000
  70
    32
  0
VERTEX
  8
LAYER_1
  5
F49
 10
326.885
 20
231.718
 30
0.000000
  70
    32
  0
VERTEX
  8
LAYER_1
  5
F4A
 10
327.093
 20
231.927
 30
0.000000
  70
    32
  0
VERTEX
  8
LAYER_1
  5
F4B
 10
327.299
 20
232.132
 30
0.000000
  70
    32
  0
VERTEX
  8
LAYER_1
  5
F4C
 10
327.501
 20
232.334
 30
0.000000
  70
    32
  0
VERTEX
  8
LAYER_1
  5
F4D
 10
327.699
 20
232.532
 30
0.000000
  70
    32
  0
VERTEX
  8
LAYER_1
  5
F4E
 10
327.893
 20
232.727
 30
0.000000
  70
    32
  0
VERTEX
  8
LAYER_1
  5
F4F
 10
328.084
 20
232.918
 30
0.000000
  70
    32
  0
VERTEX
  8
LAYER_1
  5
F50
 10
328.271
 20
233.105
 30
0.000000
  70
    32
  0
VERTEX
  8
LAYER_1
  5
F51
 10
328.454
 20
233.287
 30
0.000000
  70
    32
  0
VERTEX
  8
LAYER_1
  5
F52
 10
328.633
 20
233.466
 30
0.000000
  70
    32
  0
VERTEX
  8
LAYER_1
  5
F53
 10
328.807
 20
233.641
 30
0.000000
  70
    32
  0
VERTEX
  8
LAYER_1
  5
F54
 10
328.977
 20
233.811
 30
0.000000
  70
    32
  0
VERTEX
  8
LAYER_1
  5
F55
 10
329.143
 20
233.976
 30
0.000000
  70
    32
  0
VERTEX
  8
LAYER_1
  5
F56
 10
329.304
 20
234.137
 30
0.000000
  70
    32
  0
VERTEX
  8
LAYER_1
  5
F57
 10
329.460
 20
234.293
 30
0.000000
  70
    32
  0
VERTEX
  8
LAYER_1
  5
F58
 10
329.611
 20
234.444
 30
0.000000
  70
    32
  0
VERTEX
  8
LAYER_1
  5
F59
 10
329.757
 20
234.590
 30
0.000000
  70
    32
  0
VERTEX
  8
LAYER_1
  5
F5A
 10
329.898
 20
234.731
 30
0.000000
  70
    32
  0
VERTEX
  8
LAYER_1
  5
F5B
 10
330.033
 20
234.867
 30
0.000000
  70
    32
  0
VERTEX
  8
LAYER_1
  5
F5C
 10
330.164
 20
234.997
 30
0.000000
  70
    32
  0
VERTEX
  8
LAYER_1
  5
F5D
 10
330.288
 20
235.122
 30
0.000000
  70
    32
  0
VERTEX
  8
LAYER_1
  5
F5E
 10
330.407
 20
235.241
 30
0.000000
  70
    32
  0
VERTEX
  8
LAYER_1
  5
F5F
 10
330.521
 20
235.354
 30
0.000000
  70
    32
  0
VERTEX
  8
LAYER_1
  5
F60
 10
330.628
 20
235.461
 30
0.000000
  70
    32
  0
VERTEX
  8
LAYER_1
  5
F61
 10
330.729
 20
235.563
 30
0.000000
  70
    32
  0
VERTEX
  8
LAYER_1
  5
F62
 10
330.825
 20
235.658
 30
0.000000
  70
    32
  0
VERTEX
  8
LAYER_1
  5
F63
 10
330.914
 20
235.747
 30
0.000000
  70
    32
  0
VERTEX
  8
LAYER_1
  5
F64
 10
330.996
 20
235.829
 30
0.000000
  70
    32
  0
VERTEX
  8
LAYER_1
  5
F65
 10
331.072
 20
235.905
 30
0.000000
  70
    32
  0
VERTEX
  8
LAYER_1
  5
F66
 10
331.141
 20
235.975
 30
0.000000
  70
    32
  0
VERTEX
  8
LAYER_1
  5
F67
 10
331.204
 20
236.037
 30
0.000000
  70
    32
  0
VERTEX
  8
LAYER_1
  5
F68
 10
331.260
 20
236.093
 30
0.000000
  70
    32
  0
VERTEX
  8
LAYER_1
  5
F69
 10
331.308
 20
236.142
 30
0.000000
  70
    32
  0
VERTEX
  8
LAYER_1
  5
F6A
 10
331.350
 20
236.183
 30
0.000000
  70
    32
  0
VERTEX
  8
LAYER_1
  5
F6B
 10
331.384
 20
236.218
 30
0.000000
  70
    32
  0
VERTEX
  8
LAYER_1
  5
F6C
 10
331.411
 20
236.244
 30
0.000000
  70
    32
  0
VERTEX
  8
LAYER_1
  5
F6D
 10
331.430
 20
236.264
 30
0.000000
  70
    32
  0
VERTEX
  8
LAYER_1
  5
F6E
 10
331.442
 20
236.275
 30
0.000000
  70
    32
  0
VERTEX
  8
LAYER_1
  5
F6F
 10
331.446
 20
236.279
 30
0.000000
  70
    32
  0
SEQEND
  8
LAYER_1
  5
F70
  0
POLYLINE
  8
LAYER_1
  5
F71
  66
     1
 10
0.000000
 20
0.000000
 30
0.000000
  70
     8
  0
VERTEX
  8
LAYER_1
  5
F72
 10
310.233
 20
236.279
 30
0.000000
  70
    32
  0
VERTEX
  8
LAYER_1
  5
F73
 10
310.237
 20
236.276
 30
0.000000
  70
    32
  0
VERTEX
  8
LAYER_1
  5
F74
 10
310.248
 20
236.264
 30
0.000000
  70
    32
  0
VERTEX
  8
LAYER_1
  5
F75
 10
310.268
 20
236.245
 30
0.000000
  70
    32
  0
VERTEX
  8
LAYER_1
  5
F76
 10
310.295
 20
236.218
 30
0.000000
  70
    32
  0
VERTEX
  8
LAYER_1
  5
F77
 10
310.329
 20
236.183
 30
0.000000
  70
    32
  0
VERTEX
  8
LAYER_1
  5
F78
 10
310.370
 20
236.142
 30
0.000000
  70
    32
  0
VERTEX
  8
LAYER_1
  5
F79
 10
310.419
 20
236.093
 30
0.000000
  70
    32
  0
VERTEX
  8
LAYER_1
  5
F7A
 10
310.475
 20
236.038
 30
0.000000
  70
    32
  0
VERTEX
  8
LAYER_1
  5
F7B
 10
310.537
 20
235.975
 30
0.000000
  70
    32
  0
VERTEX
  8
LAYER_1
  5
F7C
 10
310.607
 20
235.906
 30
0.000000
  70
    32
  0
VERTEX
  8
LAYER_1
  5
F7D
 10
310.683
 20
235.830
 30
0.000000
  70
    32
  0
VERTEX
  8
LAYER_1
  5
F7E
 10
310.765
 20
235.747
 30
0.000000
  70
    32
  0
VERTEX
  8
LAYER_1
  5
F7F
 10
310.854
 20
235.658
 30
0.000000
  70
    32
  0
VERTEX
  8
LAYER_1
  5
F80
 10
310.949
 20
235.563
 30
0.000000
  70
    32
  0
VERTEX
  8
LAYER_1
  5
F81
 10
311.051
 20
235.462
 30
0.000000
  70
    32
  0
VERTEX
  8
LAYER_1
  5
F82
 10
311.158
 20
235.354
 30
0.000000
  70
    32
  0
VERTEX
  8
LAYER_1
  5
F83
 10
311.271
 20
235.241
 30
0.000000
  70
    32
  0
VERTEX
  8
LAYER_1
  5
F84
 10
311.390
 20
235.122
 30
0.000000
  70
    32
  0
VERTEX
  8
LAYER_1
  5
F85
 10
311.515
 20
234.997
 30
0.000000
  70
    32
  0
VERTEX
  8
LAYER_1
  5
F86
 10
311.645
 20
234.867
 30
0.000000
  70
    32
  0
VERTEX
  8
LAYER_1
  5
F87
 10
311.781
 20
234.731
 30
0.000000
  70
    32
  0
VERTEX
  8
LAYER_1
  5
F88
 10
311.922
 20
234.590
 30
0.000000
  70
    32
  0
VERTEX
  8
LAYER_1
  5
F89
 10
312.068
 20
234.444
 30
0.000000
  70
    32
  0
VERTEX
  8
LAYER_1
  5
F8A
 10
312.219
 20
234.293
 30
0.000000
  70
    32
  0
VERTEX
  8
LAYER_1
  5
F8B
 10
312.375
 20
234.137
 30
0.000000
  70
    32
  0
VERTEX
  8
LAYER_1
  5
F8C
 10
312.536
 20
233.976
 30
0.000000
  70
    32
  0
VERTEX
  8
LAYER_1
  5
F8D
 10
312.701
 20
233.811
 30
0.000000
  70
    32
  0
VERTEX
  8
LAYER_1
  5
F8E
 10
312.871
 20
233.641
 30
0.000000
  70
    32
  0
VERTEX
  8
LAYER_1
  5
F8F
 10
313.046
 20
233.466
 30
0.000000
  70
    32
  0
VERTEX
  8
LAYER_1
  5
F90
 10
313.225
 20
233.288
 30
0.000000
  70
    32
  0
VERTEX
  8
LAYER_1
  5
F91
 10
313.408
 20
233.105
 30
0.000000
  70
    32
  0
VERTEX
  8
LAYER_1
  5
F92
 10
313.594
 20
232.918
 30
0.000000
  70
    32
  0
VERTEX
  8
LAYER_1
  5
F93
 10
313.785
 20
232.727
 30
0.000000
  70
    32
  0
VERTEX
  8
LAYER_1
  5
F94
 10
313.980
 20
232.532
 30
0.000000
  70
    32
  0
VERTEX
  8
LAYER_1
  5
F95
 10
314.178
 20
232.334
 30
0.000000
  70
    32
  0
VERTEX
  8
LAYER_1
  5
F96
 10
314.380
 20
232.132
 30
0.000000
  70
    32
  0
VERTEX
  8
LAYER_1
  5
F97
 10
314.585
 20
231.927
 30
0.000000
  70
    32
  0
VERTEX
  8
LAYER_1
  5
F98
 10
314.794
 20
231.718
 30
0.000000
  70
    32
  0
VERTEX
  8
LAYER_1
  5
F99
 10
315.005
 20
231.507
 30
0.000000
  70
    32
  0
VERTEX
  8
LAYER_1
  5
F9A
 10
315.220
 20
231.292
 30
0.000000
  70
    32
  0
VERTEX
  8
LAYER_1
  5
F9B
 10
315.438
 20
231.074
 30
0.000000
  70
    32
  0
VERTEX
  8
LAYER_1
  5
F9C
 10
315.658
 20
230.854
 30
0.000000
  70
    32
  0
VERTEX
  8
LAYER_1
  5
F9D
 10
315.882
 20
230.631
 30
0.000000
  70
    32
  0
VERTEX
  8
LAYER_1
  5
F9E
 10
316.107
 20
230.405
 30
0.000000
  70
    32
  0
VERTEX
  8
LAYER_1
  5
F9F
 10
316.335
 20
230.177
 30
0.000000
  70
    32
  0
VERTEX
  8
LAYER_1
  5
FA0
 10
316.566
 20
229.947
 30
0.000000
  70
    32
  0
VERTEX
  8
LAYER_1
  5
FA1
 10
316.798
 20
229.714
 30
0.000000
  70
    32
  0
VERTEX
  8
LAYER_1
  5
FA2
 10
317.033
 20
229.479
 30
0.000000
  70
    32
  0
VERTEX
  8
LAYER_1
  5
FA3
 10
317.270
 20
229.243
 30
0.000000
  70
    32
  0
VERTEX
  8
LAYER_1
  5
FA4
 10
317.508
 20
229.004
 30
0.000000
  70
    32
  0
VERTEX
  8
LAYER_1
  5
FA5
 10
317.748
 20
228.764
 30
0.000000
  70
    32
  0
VERTEX
  8
LAYER_1
  5
FA6
 10
317.990
 20
228.523
 30
0.000000
  70
    32
  0
VERTEX
  8
LAYER_1
  5
FA7
 10
318.233
 20
228.280
 30
0.000000
  70
    32
  0
VERTEX
  8
LAYER_1
  5
FA8
 10
318.477
 20
228.035
 30
0.000000
  70
    32
  0
VERTEX
  8
LAYER_1
  5
FA9
 10
318.722
 20
227.790
 30
0.000000
  70
    32
  0
VERTEX
  8
LAYER_1
  5
FAA
 10
318.969
 20
227.543
 30
0.000000
  70
    32
  0
VERTEX
  8
LAYER_1
  5
FAB
 10
319.216
 20
227.296
 30
0.000000
  70
    32
  0
VERTEX
  8
LAYER_1
  5
FAC
 10
319.465
 20
227.047
 30
0.000000
  70
    32
  0
VERTEX
  8
LAYER_1
  5
FAD
 10
319.714
 20
226.799
 30
0.000000
  70
    32
  0
VERTEX
  8
LAYER_1
  5
FAE
 10
319.963
 20
226.549
 30
0.000000
  70
    32
  0
VERTEX
  8
LAYER_1
  5
FAF
 10
320.213
 20
226.299
 30
0.000000
  70
    32
  0
VERTEX
  8
LAYER_1
  5
FB0
 10
320.464
 20
226.049
 30
0.000000
  70
    32
  0
VERTEX
  8
LAYER_1
  5
FB1
 10
320.714
 20
225.798
 30
0.000000
  70
    32
  0
VERTEX
  8
LAYER_1
  5
FB2
 10
320.965
 20
225.548
 30
0.000000
  70
    32
  0
VERTEX
  8
LAYER_1
  5
FB3
 10
321.215
 20
225.297
 30
0.000000
  70
    32
  0
VERTEX
  8
LAYER_1
  5
FB4
 10
321.465
 20
225.047
 30
0.000000
  70
    32
  0
VERTEX
  8
LAYER_1
  5
FB5
 10
321.715
 20
224.797
 30
0.000000
  70
    32
  0
VERTEX
  8
LAYER_1
  5
FB6
 10
321.965
 20
224.547
 30
0.000000
  70
    32
  0
VERTEX
  8
LAYER_1
  5
FB7
 10
322.214
 20
224.298
 30
0.000000
  70
    32
  0
VERTEX
  8
LAYER_1
  5
FB8
 10
322.462
 20
224.050
 30
0.000000
  70
    32
  0
VERTEX
  8
LAYER_1
  5
FB9
 10
322.710
 20
223.803
 30
0.000000
  70
    32
  0
VERTEX
  8
LAYER_1
  5
FBA
 10
322.956
 20
223.556
 30
0.000000
  70
    32
  0
VERTEX
  8
LAYER_1
  5
FBB
 10
323.202
 20
223.310
 30
0.000000
  70
    32
  0
VERTEX
  8
LAYER_1
  5
FBC
 10
323.446
 20
223.066
 30
0.000000
  70
    32
  0
VERTEX
  8
LAYER_1
  5
FBD
 10
323.689
 20
222.823
 30
0.000000
  70
    32
  0
VERTEX
  8
LAYER_1
  5
FBE
 10
323.931
 20
222.582
 30
0.000000
  70
    32
  0
VERTEX
  8
LAYER_1
  5
FBF
 10
324.171
 20
222.341
 30
0.000000
  70
    32
  0
VERTEX
  8
LAYER_1
  5
FC0
 10
324.409
 20
222.103
 30
0.000000
  70
    32
  0
VERTEX
  8
LAYER_1
  5
FC1
 10
324.646
 20
221.867
 30
0.000000
  70
    32
  0
VERTEX
  8
LAYER_1
  5
FC2
 10
324.880
 20
221.632
 30
0.000000
  70
    32
  0
VERTEX
  8
LAYER_1
  5
FC3
 10
325.113
 20
221.399
 30
0.000000
  70
    32
  0
VERTEX
  8
LAYER_1
  5
FC4
 10
325.343
 20
221.169
 30
0.000000
  70
    32
  0
VERTEX
  8
LAYER_1
  5
FC5
 10
325.571
 20
220.941
 30
0.000000
  70
    32
  0
VERTEX
  8
LAYER_1
  5
FC6
 10
325.797
 20
220.715
 30
0.000000
  70
    32
  0
VERTEX
  8
LAYER_1
  5
FC7
 10
326.020
 20
220.492
 30
0.000000
  70
    32
  0
VERTEX
  8
LAYER_1
  5
FC8
 10
326.241
 20
220.272
 30
0.000000
  70
    32
  0
VERTEX
  8
LAYER_1
  5
FC9
 10
326.458
 20
220.054
 30
0.000000
  70
    32
  0
VERTEX
  8
LAYER_1
  5
FCA
 10
326.673
 20
219.839
 30
0.000000
  70
    32
  0
VERTEX
  8
LAYER_1
  5
FCB
 10
326.885
 20
219.627
 30
0.000000
  70
    32
  0
VERTEX
  8
LAYER_1
  5
FCC
 10
327.093
 20
219.419
 30
0.000000
  70
    32
  0
VERTEX
  8
LAYER_1
  5
FCD
 10
327.299
 20
219.214
 30
0.000000
  70
    32
  0
VERTEX
  8
LAYER_1
  5
FCE
 10
327.501
 20
219.012
 30
0.000000
  70
    32
  0
VERTEX
  8
LAYER_1
  5
FCF
 10
327.699
 20
218.813
 30
0.000000
  70
    32
  0
VERTEX
  8
LAYER_1
  5
FD0
 10
327.893
 20
218.619
 30
0.000000
  70
    32
  0
VERTEX
  8
LAYER_1
  5
FD1
 10
328.084
 20
218.428
 30
0.000000
  70
    32
  0
VERTEX
  8
LAYER_1
  5
FD2
 10
328.271
 20
218.241
 30
0.000000
  70
    32
  0
VERTEX
  8
LAYER_1
  5
FD3
 10
328.454
 20
218.058
 30
0.000000
  70
    32
  0
VERTEX
  8
LAYER_1
  5
FD4
 10
328.633
 20
217.880
 30
0.000000
  70
    32
  0
VERTEX
  8
LAYER_1
  5
FD5
 10
328.807
 20
217.705
 30
0.000000
  70
    32
  0
VERTEX
  8
LAYER_1
  5
FD6
 10
328.977
 20
217.535
 30
0.000000
  70
    32
  0
VERTEX
  8
LAYER_1
  5
FD7
 10
329.143
 20
217.370
 30
0.000000
  70
    32
  0
VERTEX
  8
LAYER_1
  5
FD8
 10
329.303
 20
217.209
 30
0.000000
  70
    32
  0
VERTEX
  8
LAYER_1
  5
FD9
 10
329.460
 20
217.053
 30
0.000000
  70
    32
  0
VERTEX
  8
LAYER_1
  5
FDA
 10
329.611
 20
216.902
 30
0.000000
  70
    32
  0
VERTEX
  8
LAYER_1
  5
FDB
 10
329.757
 20
216.756
 30
0.000000
  70
    32
  0
VERTEX
  8
LAYER_1
  5
FDC
 10
329.898
 20
216.615
 30
0.000000
  70
    32
  0
VERTEX
  8
LAYER_1
  5
FDD
 10
330.033
 20
216.479
 30
0.000000
  70
    32
  0
VERTEX
  8
LAYER_1
  5
FDE
 10
330.164
 20
216.349
 30
0.000000
  70
    32
  0
VERTEX
  8
LAYER_1
  5
FDF
 10
330.288
 20
216.224
 30
0.000000
  70
    32
  0
VERTEX
  8
LAYER_1
  5
FE0
 10
330.407
 20
216.105
 30
0.000000
  70
    32
  0
VERTEX
  8
LAYER_1
  5
FE1
 10
330.521
 20
215.992
 30
0.000000
  70
    32
  0
VERTEX
  8
LAYER_1
  5
FE2
 10
330.628
 20
215.884
 30
0.000000
  70
    32
  0
VERTEX
  8
LAYER_1
  5
FE3
 10
330.729
 20
215.783
 30
0.000000
  70
    32
  0
VERTEX
  8
LAYER_1
  5
FE4
 10
330.825
 20
215.688
 30
0.000000
  70
    32
  0
VERTEX
  8
LAYER_1
  5
FE5
 10
330.914
 20
215.599
 30
0.000000
  70
    32
  0
VERTEX
  8
LAYER_1
  5
FE6
 10
330.996
 20
215.516
 30
0.000000
  70
    32
  0
VERTEX
  8
LAYER_1
  5
FE7
 10
331.072
 20
215.440
 30
0.000000
  70
    32
  0
VERTEX
  8
LAYER_1
  5
FE8
 10
331.141
 20
215.371
 30
0.000000
  70
    32
  0
VERTEX
  8
LAYER_1
  5
FE9
 10
331.204
 20
215.308
 30
0.000000
  70
    32
  0
VERTEX
  8
LAYER_1
  5
FEA
 10
331.260
 20
215.253
 30
0.000000
  70
    32
  0
VERTEX
  8
LAYER_1
  5
FEB
 10
331.308
 20
215.204
 30
0.000000
  70
    32
  0
VERTEX
  8
LAYER_1
  5
FEC
 10
331.350
 20
215.162
 30
0.000000
  70
    32
  0
VERTEX
  8
LAYER_1
  5
FED
 10
331.384
 20
215.128
 30
0.000000
  70
    32
  0
VERTEX
  8
LAYER_1
  5
FEE
 10
331.411
 20
215.101
 30
0.000000
  70
    32
  0
VERTEX
  8
LAYER_1
  5
FEF
 10
331.430
 20
215.082
 30
0.000000
  70
    32
  0
VERTEX
  8
LAYER_1
  5
FF0
 10
331.442
 20
215.070
 30
0.000000
  70
    32
  0
VERTEX
  8
LAYER_1
  5
FF1
 10
331.446
 20
215.066
 30
0.000000
  70
    32
  0
SEQEND
  8
LAYER_1
  5
FF2
  0
POLYLINE
  5
434
  8
0
 66
     1
 10
0.0
 20
0.0
 30
0.0
 70
     1
  0
VERTEX
  5
E78
  8
0
 10
140.31066411004849
 20
181.9228194100844
 30
0.0
  0
VERTEX
  5
E79
  8
0
 10
187.8127447681625
 20
181.9228194100844
 30
0.0
  0
VERTEX
  5
E7A
  8
0
 10
306.69730444106881
 20
63.038259737178123
 30
0.0
 42
0.4142135623730959
  0
VERTEX
  5
E7B
  8
0
 10
334.98157568853071
 20
63.038259737178123
 30
0.0
  0
VERTEX
  5
E7C
  8
0
 10
483.47399973770518
 20
211.53068378635339
 30
0.0
 42
0.414213562373094
  0
VERTEX
  5
E7D
  8
0
 10
483.47399973770518
 20
239.81495503381529
 30
0.0
  0
VERTEX
  5
E7E
  8
0
 10
334.98157568853048
 20
388.30737908299011
 30
0.0
 42
0.4142135623730953
  0
VERTEX
  5
E7F
  8
0
 10
306.6973044410683
 20
388.30737908299011
 30
0.0
  0
VERTEX
  5
E80
  8
0
 10
187.8127447681629
 20
269.42281941008451
 30
0.0
  0
VERTEX
  5
E81
  8
0
 10
140.31066411004849
 20
269.42281941008451
 30
0.0
 42
0.9999999999999998
  0
SEQEND
  5
E82
  8
0
  0
LINE
  5
440
  8
0
 10
184.06066411004849
 20
269.42281941008451
 30
0.0
 11
187.8127447681629
 21
269.42281941008451
 31
0.0
  0
CIRCLE
  5
445
  8
0
 10
140.31066411004849
 20
225.67281941008449
 30
0.0
 40
33.0
  0
INSERT
  5
45B
  8
0
  2
*U15
 10
-1318.7449699156809
 20
738.14273540839054
 30
0.0
  0
INSERT
  5
493
  8
0
  2
*U18
 10
-1318.7449699156809
 20
1310.1431061493561
 30
0.0
  0
CIRCLE
  5
4AD
  8
0
 10
140.31066411004849
 20
797.67319015104954
 30
0.0
 40
43.75
  0
CIRCLE
  5
4B8
  8
0
 10
140.31066411004849
 20
797.67319015104954
 30
0.0
 40
6.5
  0
CIRCLE
  5
4B9
  8
0
 10
140.31066411004849
 20
797.67319015104954
 30
0.0
 40
3.1749999999999989
  0
CIRCLE
  5
4BA
  8
0
 10
117.3006641100485
 20
797.67319015104954
 30
0.0
 40
2.794999999999999
  0
CIRCLE
  5
4BB
  8
0
 10
163.32066411004851
 20
797.67319015104954
 30
0.0
 40
2.794999999999999
  0
INSERT
  5
4E0
  8
0
  2
*U21
 10
-1318.7449699156809
 20
1209.3904794598241
 30
0.0
  0
CIRCLE
  5
4E1
  8
0
 10
140.31066411004849
 20
696.92056346151787
 30
0.0
 40
43.75
  0
CIRCLE
  5
502
  8
0
 10
140.31066411004849
 20
696.92056346151787
 30
0.0
 40
33.0
  0
INSERT
  5
54A
  8
0
  2
*U26
 10
-1318.7449699156809
 20
1116.647623465157
 30
0.0
  0
CIRCLE
  5
54B
  8
0
 10
140.31066411004849
 20
604.17770746685073
 30
0.0
 40
43.75
  0
CIRCLE
  5
54C
  8
0
 10
140.31066411004849
 20
604.17770746685073
 30
0.0
 40
33.0
  0
INSERT
  5
58A
  8
0
  2
*U30
 10
-1318.7449699156809
 20
1022.626964865026
 30
0.0
  0
ARC
  5
58B
  8
0
 10
140.31066411004849
 20
510.15704886672
 30
0.0
 40
43.75
 50
99.206896221343072
 51
80.793103778656914
  0
LINE
  5
5A8
  8
0
 10
133.31066411004849
 20
553.34341824410581
 30
0.0
 11
133.31066411004849
 21
542.40607985991414
 31
0.0
  0
LINE
  5
5A9
  8
0
 10
147.31066411004849
 20
553.34341824410581
 30
0.0
 11
147.31066411004849
 21
542.40607985991414
 31
0.0
  0
INSERT
  5
5D2
  8
0
  2
*U33
 10
-1318.7449699156809
 20
930.42182298135003
 30
0.0
  0
ARC
  5
5D3
  8
0
 10
140.31066411004849
 20
417.9519069830439
 30
0.0
 40
43.75
 50
99.206896221351585
 51
80.793103778648415
  0
LINE
  5
5D5
  8
0
 10
133.31066411004849
 20
461.13827636042959
 30
0.0
 11
133.31066411004849
 21
450.20093797623809
 31
0.0
  0
LINE
  5
5D6
  8
0
 10
147.31066411004849
 20
461.13827636042959
 30
0.0
 11
147.31066411004849
 21
450.20093797623809
 31
0.0
  0
INSERT
  5
615
  8
0
  2
*U36
 10
-1318.7449699156809
 20
839.95154084208025
 30
0.0
  0
CIRCLE
  5
616
  8
0
 10
140.31066411004849
 20
327.48162484377423
 30
0.0
 40
43.75
  0
CIRCLE
  5
617
  8
0
 10
140.31066411004849
 20
327.48162484377423
 30
0.0
 40
33.0
  0
ARC
  5
638
  8
0
 10
140.31066411004849
 20
417.9519069830439
 30
0.0
 40
33.0
 50
102.2466897273144
 51
77.753310272685596
  0
ARC
  5
640
  8
0
 10
140.31066411004849
 20
510.15704886672
 30
0.0
 40
33.0
 50
102.2466897273144
 51
77.753310272685596
  0
LINE
  5
643
  8
0
 10
133.31066411004849
 20
547.87474905200986
 30
0.0
 11
128.81552057359499
 21
552.36989258846347
 31
0.0
  0
LINE
  5
644
  8
0
 10
147.31066411004849
 20
547.87474905200986
 30
0.0
 11
151.80580764650199
 21
552.36989258846347
 31
0.0
  0
LINE
  5
645
  8
0
 10
133.31066411004849
 20
455.66960716833381
 30
0.0
 11
128.81552057359499
 21
460.16475070478731
 31
0.0
  0
LINE
  5
646
  8
0
 10
147.31066411004849
 20
455.66960716833381
 30
0.0
 11
151.80580764650171
 21
460.16475070478731
 31
0.0
  0
CIRCLE
  5
688
  8
0
 10
679.33533710134452
 20
763.84803510899519
 30
0.0
 40
25.0
  0
CIRCLE
  5
689
  8
0
 10
679.33533710134452
 20
763.84803510899519
 30
0.0
 40
3.1749999999999989
  0
INSERT
  5
68A
  8
0
  2
*U39
 10
-72.034031025730201
 20
874.48674581419482
 30
0.0
  0
CIRCLE
  5
68B
  8
0
 10
679.33533710134452
 20
763.84803510899519
 30
0.0
 40
9.0
  0
LINE
  5
68C
  8
0
 10
722.66268064110182
 20
788.84803510899519
 30
0.0
 11
722.66268064110182
 21
738.84803510899519
 31
0.0
  0
LINE
  5
6AC
  8
0
 10
728.16268064110182
 20
788.84803510899519
 30
0.0
 11
728.16268064110182
 21
738.84803510899519
 31
0.0
  0
LINE
  5
6AD
  8
0
 10
728.16268064110182
 20
738.84803510899519
 30
0.0
 11
733.66268064110182
 21
738.84803510899519
 31
0.0
  0
LINE
  5
6AE
  8
0
 10
733.66268064110182
 20
738.84803510899519
 30
0.0
 11
733.66268064110159
 21
788.84803510899519
 31
0.0
  0
LINE
  5
6AF
  8
0
 10
733.66268064110159
 20
788.84803510899519
 30
0.0
 11
728.16268064110182
 21
788.84803510899519
 31
0.0
  0
LINE
  5
6B0
  8
0
 10
728.16268064110182
 20
788.84803510899519
 30
0.0
 11
722.66268064110182
 21
788.84803510899519
 31
0.0
  0
LINE
  5
6B1
  8
0
 10
728.16268064110182
 20
738.84803510899519
 30
0.0
 11
722.66268064110182
 21
738.84803510899519
 31
0.0
  0
CIRCLE
  5
6DB
  8
0
 10
196.5308136600888
 20
963.65972390490651
 30
0.0
 40
25.0
  0
INSERT
  5
6DC
  8
0
  2
*U42
 10
-554.8385544669859
 20
1074.2984346101059
 30
0.0
  0
CIRCLE
  5
6DD
  8
0
 10
196.5308136600888
 20
963.65972390490651
 30
0.0
 40
9.0
  0
CIRCLE
  5
6FC
  8
0
 10
196.5308136600888
 20
963.65972390490651
 30
0.0
 40
3.1749999999999989
  0
CIRCLE
  5
706
  8
0
 10
234.32437300213911
 20
963.65972390490651
 30
0.0
 40
9.0
  0
CIRCLE
  5
707
  8
0
 10
234.32437300213911
 20
963.65972390490651
 30
0.0
 40
3.1749999999999989
  0
LINE
  5
714
  8
0
 10
722.67297782518006
 20
470.95316185772748
 30
0.0
 11
722.67297782518006
 21
449.78649519106102
 31
0.0
  0
LINE
  5
715
  8
0
 10
722.67297782518006
 20
407.45316185772748
 30
0.0
 11
722.67297782518006
 21
428.61982852439422
 31
0.0
  0
LINE
  5
717
  8
0
 10
722.67297782518006
 20
449.78649519106102
 30
0.0
 11
728.17297782518017
 21
449.78649519106102
 31
0.0
  0
LINE
  5
718
  8
0
 10
728.17297782518017
 20
449.78649519106102
 30
0.0
 11
728.17297782518017
 21
454.78649519106102
 31
0.0
  0
LINE
  5
719
  8
0
 10
728.17297782518017
 20
454.78649519106102
 30
0.0
 11
730.67297782518006
 21
454.78649519106102
 31
0.0
  0
LINE
  5
71A
  8
0
 10
722.67297782518006
 20
428.61982852439411
 30
0.0
 11
728.17297782518017
 21
428.61982852439411
 31
0.0
  0
LINE
  5
71B
  8
0
 10
728.17297782518017
 20
428.61982852439411
 30
0.0
 11
728.17297782518017
 21
423.61982852439422
 31
0.0
  0
LINE
  5
71C
  8
0
 10
728.17297782518017
 20
423.61982852439422
 30
0.0
 11
730.67297782518006
 21
423.61982852439422
 31
0.0
  0
LINE
  5
71D
  8
0
 10
733.67297782518006
 20
426.61982852439411
 30
0.0
 11
733.67297782518006
 21
451.78649519106102
 31
0.0
  0
LINE
  5
71E
  8
0
 10
730.67297782518006
 20
454.78649519106102
 30
0.0
 11
733.67297782518006
 21
451.78649519106102
 31
0.0
  0
LINE
  5
71F
  8
0
 10
733.67297782518006
 20
426.61982852439411
 30
0.0
 11
730.67297782518006
 21
423.61982852439422
 31
0.0
  0
CIRCLE
  5
72D
  8
0
 10
684.92297782518006
 20
439.20316185772748
 30
0.0
 40
3.1749999999999989
  0
ARC
  5
72F
  8
0
 10
684.92297782518006
 20
439.20316185772748
 30
0.0
 40
15.0
 50
135.00000000000421
 51
224.99999999999579
  0
LINE
  5
732
  8
0
 10
674.31637610738187
 20
449.80976357552561
 30
0.0
 11
695.45977438958369
 21
470.95316185772748
 31
0.0
  0
LINE
  5
733
  8
0
 10
722.67297782518006
 20
470.95316185772748
 30
0.0
 11
695.45977438958369
 21
470.95316185772748
 31
0.0
  0
LINE
  5
73D
  8
0
 10
674.31637610738187
 20
428.5965601399293
 30
0.0
 11
695.45977438958369
 21
407.45316185772748
 31
0.0
  0
LINE
  5
73E
  8
0
 10
722.67297782518006
 20
407.45316185772748
 30
0.0
 11
695.45977438958369
 21
407.45316185772748
 31
0.0
  0
POLYLINE
  5
740
  8
0
 66
     1
 10
0.0
 20
0.0
 30
0.0
 70
     1
  0
VERTEX
  5
EA1
  8
0
 10
738.66268064110182
 20
754.84803510899519
 30
0.0
  0
VERTEX
  5
EA2
  8
0
 10
733.1626806411017
 20
754.84803510899519
 30
0.0
  0
VERTEX
  5
EA3
  8
0
 10
733.1626806411017
 20
772.84803510899519
 30
0.0
  0
VERTEX
  5
EA4
  8
0
 10
738.66268064110182
 20
772.84803510899519
 30
0.0
  0
SEQEND
  5
EA5
  8
0
  0
CIRCLE
  5
77C
  8
0
 10
317.08736411004787
 20
1091.030849728179
 30
0.0
 40
25.0
  0
CIRCLE
  5
77D
  8
0
 10
317.08736411004787
 20
1091.030849728179
 30
0.0
 40
3.1749999999999989
  0
INSERT
  5
77E
  8
0
  2
*U47
 10
-434.28200401702668
 20
1201.6695604333779
 30
0.0
  0
CIRCLE
  5
77F
  8
0
 10
373.3075136600882
 20
1091.030849728179
 30
0.0
 40
25.0
  0
INSERT
  5
780
  8
0
  2
*U49
 10
-378.06185446698652
 20
1201.6695604333779
 30
0.0
  0
CIRCLE
  5
781
  8
0
 10
373.3075136600882
 20
1091.030849728179
 30
0.0
 40
9.0
  0
CIRCLE
  5
782
  8
0
 10
373.3075136600882
 20
1091.030849728179
 30
0.0
 40
3.1749999999999989
  0
CIRCLE
  5
783
  8
0
 10
411.10107300213838
 20
1091.030849728179
 30
0.0
 40
9.0
  0
CIRCLE
  5
784
  8
0
 10
411.10107300213838
 20
1091.030849728179
 30
0.0
 40
3.1749999999999989
  0
LINE
  5
7B2
  8
0
 10
635.97328577639098
 20
785.02892445918485
 30
0.0
 11
263.72159731547259
 21
945.0515501743771
 31
0.0
  0
LINE
  5
7B3
  8
0
 10
654.53336420130017
 20
797.51894213472951
 30
0.0
 11
410.61243518464369
 21
1059.282435705956
 31
0.0
  0
POLYLINE
  5
7C9
  8
0
 66
     1
 10
0.0
 20
0.0
 30
0.0
 70
     1
  0
VERTEX
  5
EAC
  8
0
 10
1153.7361784887139
 20
349.62465748665642
 30
0.0
  0
VERTEX
  5
EAD
  8
0
 10
1953.7361784887139
 20
349.62465748665642
 30
0.0
  0
VERTEX
  5
EAE
  8
0
 10
1953.7361784887139
 20
849.62465748665636
 30
0.0
  0
VERTEX
  5
EAF
  8
0
 10
1153.7361784887139
 20
849.62465748665636
 30
0.0
  0
SEQEND
  5
EB0
  8
0
  0
ARC
  5
7EE
  8
0
 10
1196.383523312506
 20
391.68649284224227
 30
0.0
 40
456.50351399806669
 50
68.472816344819762
 51
91.163069317421716
  0
ARC
  5
7EF
  8
0
 10
1187.1174172976209
 20
816.3459554653391
 30
0.0
 40
31.750000000000028
 50
90.0
 51
270.0
  0
ARC
  5
7F0
  8
0
 10
1196.383523312506
 20
1241.005418088436
 30
0.0
 40
456.50351399806669
 50
268.83693068257833
 51
291.52718365518018
  0
CIRCLE
  5
7F1
  8
0
 10
1187.1174172976209
 20
816.3459554653391
 30
0.0
 40
9.0
  0
INSERT
  5
7F2
  8
0
  2
*U53
 10
435.74804917054598
 20
926.98466617053862
 30
0.0
  0
CIRCLE
  5
843
  8
0
 10
1409.3185149989149
 20
804.19877425179425
 30
0.0
 40
25.0
  0
CIRCLE
  5
844
  8
0
 10
1409.3185149989149
 20
804.19877425179425
 30
0.0
 40
3.1749999999999989
  0
INSERT
  5
845
  8
0
  2
*U59
 10
657.94914687184007
 20
914.83748495699376
 30
0.0
  0
CIRCLE
  5
846
  8
0
 10
1743.811553468774
 20
804.19426101340855
 30
0.0
 40
25.0
  0
INSERT
  5
847
  8
0
  2
*U61
 10
992.4421853416992
 20
914.83297171860806
 30
0.0
  0
CIRCLE
  5
848
  8
0
 10
1743.811553468774
 20
804.19426101340855
 30
0.0
 40
9.0
  0
CIRCLE
  5
849
  8
0
 10
1743.811553468774
 20
804.19426101340855
 30
0.0
 40
3.1749999999999989
  0
CIRCLE
  5
87C
  8
0
 10
1349.646129496055
 20
837.26460609372975
 30
0.0
 40
9.0
  0
CIRCLE
  5
87D
  8
0
 10
1349.646129496055
 20
837.26460609372975
 30
0.0
 40
3.1749999999999989
  0
CIRCLE
  5
886
  8
0
 10
1356.040852905372
 20
801.88759916307959
 30
0.0
 40
9.0
  0
CIRCLE
  5
887
  8
0
 10
1356.040852905372
 20
801.88759916307959
 30
0.0
 40
3.1749999999999989
  0
LINE
  5
8B1
  8
0
 10
1489.654695056822
 20
847.63974001863619
 30
0.0
 11
1666.431395056821
 21
847.63974001863619
 31
0.0
  0
ARC
  5
8B2
  8
0
 10
1489.654695056822
 20
815.8897400186363
 30
0.0
 40
31.750000000000028
 50
90.0
 51
270.0
  0
ARC
  5
8B3
  8
0
 10
1666.431395056821
 20
815.8897400186363
 30
0.0
 40
31.750000000000028
 50
270.0
 51
90.0
  0
LINE
  5
8B4
  8
0
 10
1489.654695056822
 20
784.13974001863619
 30
0.0
 11
1666.431395056821
 21
784.13974001863619
 31
0.0
  0
CIRCLE
  5
8B5
  8
0
 10
1666.431395056821
 20
815.8897400186363
 30
0.0
 40
6.5
  0
CIRCLE
  5
8B6
  8
0
 10
1666.431395056821
 20
815.8897400186363
 30
0.0
 40
3.1749999999999989
  0
CIRCLE
  5
8B7
  8
0
 10
1643.421395056821
 20
815.8897400186363
 30
0.0
 40
2.794999999999999
  0
CIRCLE
  5
8B8
  8
0
 10
1689.441395056821
 20
815.8897400186363
 30
0.0
 40
2.794999999999999
  0
CIRCLE
  5
8B9
  8
0
 10
1489.654695056822
 20
815.8897400186363
 30
0.0
 40
9.0
  0
INSERT
  5
8BA
  8
0
  2
*U65
 10
738.28532692974704
 20
926.52845072383593
 30
0.0
  0
CIRCLE
  5
90B
  8
0
 10
1423.347432411053
 20
716.07567693822102
 30
0.0
 40
25.0
  0
CIRCLE
  5
90C
  8
0
 10
1423.347432411053
 20
716.07567693822102
 30
0.0
 40
3.1749999999999989
  0
INSERT
  5
90D
  8
0
  2
*U71
 10
671.97806428397826
 20
826.71438764342065
 30
0.0
  0
CIRCLE
  5
90E
  8
0
 10
1199.912506911847
 20
453.34595550662971
 30
0.0
 40
25.0
  0
INSERT
  5
90F
  8
0
  2
*U73
 10
448.5431387847724
 20
563.98466621182934
 30
0.0
  0
CIRCLE
  5
910
  8
0
 10
1199.912506911847
 20
453.34595550662971
 30
0.0
 40
9.0
  0
CIRCLE
  5
911
  8
0
 10
1199.912506911847
 20
453.34595550662971
 30
0.0
 40
3.1749999999999989
  0
ARC
  5
94B
  8
0
 10
1827.658739124355
 20
815.28100563414614
 30
0.0
 40
31.750000000000028
 50
0.0
 51
180.0
  0
POLYLINE
  5
94C
  8
0
 66
     1
 10
0.0
 20
0.0
 30
0.0
  0
VERTEX
  5
EC3
  8
0
 10
1859.408739124354
 20
815.28100563414614
 30
0.0
  0
VERTEX
  5
EC4
  8
0
 10
1859.408739124354
 20
768.53100563414614
 30
0.0
  0
VERTEX
  5
EC5
  8
0
 10
1854.408739124355
 20
763.53100563414614
 30
0.0
  0
VERTEX
  5
EC6
  8
0
 10
1838.242072457688
 20
763.53100563414614
 30
0.0
  0
VERTEX
  5
EC7
  8
0
 10
1838.242072457688
 20
778.53100563414614
 30
0.0
  0
VERTEX
  5
EC8
  8
0
 10
1817.075405791021
 20
778.53100563414614
 30
0.0
  0
VERTEX
  5
EC9
  8
0
 10
1817.075405791021
 20
763.53100563414614
 30
0.0
  0
VERTEX
  5
ECA
  8
0
 10
1800.908739124355
 20
763.53100563414614
 30
0.0
  0
VERTEX
  5
ECB
  8
0
 10
1795.908739124354
 20
768.53100563414614
 30
0.0
  0
VERTEX
  5
ECC
  8
0
 10
1795.908739124354
 20
815.28100563414614
 30
0.0
  0
SEQEND
  5
ECD
  8
0
  0
CIRCLE
  5
94D
  8
0
 10
1827.658739124355
 20
815.28100563414614
 30
0.0
 40
6.5
  0
CIRCLE
  5
94E
  8
0
 10
1827.658739124355
 20
815.28100563414614
 30
0.0
 40
3.1749999999999989
  0
CIRCLE
  5
94F
  8
0
 10
1804.648739124355
 20
815.28100563414614
 30
0.0
 40
2.794999999999999
  0
CIRCLE
  5
950
  8
0
 10
1850.6687391243549
 20
815.28100563414614
 30
0.0
 40
2.794999999999999
  0
CIRCLE
  5
952
  8
0
 10
1806.492072457688
 20
771.03100563414614
 30
0.0
 40
1.5
  0
CIRCLE
  5
953
  8
0
 10
1848.825405791021
 20
771.03100563414614
 30
0.0
 40
1.5
  0
INSERT
  5
97B
  8
0
  2
*U77
 10
-258.40223293311868
 20
1250.273540468467
 30
0.0
  0
CIRCLE
  5
97C
  8
0
 10
1200.65340109261
 20
737.80362447016091
 30
0.0
 40
43.75
  0
CIRCLE
  5
97D
  8
0
 10
1200.65340109261
 20
737.80362447016091
 30
0.0
 40
6.5
  0
CIRCLE
  5
97E
  8
0
 10
1200.65340109261
 20
737.80362447016091
 30
0.0
 40
3.1749999999999989
  0
CIRCLE
  5
97F
  8
0
 10
1177.6434010926109
 20
737.80362447016091
 30
0.0
 40
2.794999999999999
  0
CIRCLE
  5
980
  8
0
 10
1223.6634010926109
 20
737.80362447016091
 30
0.0
 40
2.794999999999999
  0
INSERT
  5
9BE
  8
0
  2
*U81
 10
-35.637663357944348
 20
1227.930708795009
 30
0.0
  0
CIRCLE
  5
9BF
  8
0
 10
1423.4179706677851
 20
715.46079279670334
 30
0.0
 40
43.75
  0
CIRCLE
  5
9C0
  8
0
 10
1423.4179706677851
 20
715.46079279670334
 30
0.0
 40
33.0
  0
INSERT
  5
A02
  8
0
  2
*U85
 10
-258.77607902034151
 20
964.78889123990064
 30
0.0
  0
ARC
  5
A03
  8
0
 10
1200.2795550053879
 20
452.31897524159439
 30
0.0
 40
43.75
 50
99.206896221337715
 51
80.793103778662285
  0
LINE
  5
A04
  8
0
 10
1193.2795550053879
 20
495.50534461898008
 30
0.0
 11
1193.2795550053879
 21
484.56800623478858
 31
0.0
  0
LINE
  5
A05
  8
0
 10
1207.2795550053879
 20
495.50534461898008
 30
0.0
 11
1207.2795550053879
 21
484.56800623478858
 31
0.0
  0
ARC
  5
A06
  8
0
 10
1200.2795550053879
 20
452.31897524159439
 30
0.0
 40
33.0
 50
102.2466897273131
 51
77.753310272686974
  0
LINE
  5
A07
  8
0
 10
1193.2795550053879
 20
490.0366754268843
 30
0.0
 11
1188.784411468934
 21
494.5318189633378
 31
0.0
  0
LINE
  5
A08
  8
0
 10
1207.2795550053879
 20
490.0366754268843
 30
0.0
 11
1211.774698541841
 21
494.5318189633378
 31
0.0
  0
INSERT
  5
A4A
  8
0
  2
*U89
 10
-48.599268235042921
 20
1316.1410095857109
 30
0.0
  0
ARC
  5
A4B
  8
0
 10
1410.456365790686
 20
803.67109358740527
 30
0.0
 40
43.75
 50
99.206896221350618
 51
80.793103778649382
  0
LINE
  5
A4C
  8
0
 10
1403.456365790686
 20
846.85746296479101
 30
0.0
 11
1403.456365790686
 21
835.92012458059935
 31
0.0
  0
LINE
  5
A4D
  8
0
 10
1417.456365790686
 20
846.85746296479101
 30
0.0
 11
1417.456365790686
 21
835.92012458059935
 31
0.0
  0
ARC
  5
A4E
  8
0
 10
1410.456365790686
 20
803.67109358740527
 30
0.0
 40
33.0
 50
102.2466897273129
 51
77.753310272687031
  0
LINE
  5
A4F
  8
0
 10
1403.456365790686
 20
841.38879377269507
 30
0.0
 11
1398.961222254233
 21
845.88393730914868
 31
0.0
  0
LINE
  5
A50
  8
0
 10
1417.456365790686
 20
841.38879377269507
 30
0.0
 11
1421.9515093271391
 21
845.88393730914868
 31
0.0
  0
INSERT
  5
A8E
  8
0
  2
*U93
 10
284.88270299709029
 20
1315.8881669242389
 30
0.0
  0
CIRCLE
  5
A8F
  8
0
 10
1743.938337022819
 20
803.41825092593308
 30
0.0
 40
43.75
  0
CIRCLE
  5
A90
  8
0
 10
1743.938337022819
 20
803.41825092593308
 30
0.0
 40
33.0
  0
POLYLINE
  8
LAYER_1
  5
FF3
  66
     1
 10
0.000000
 20
0.000000
 30
0.000000
  70
     8
  0
VERTEX
  8
LAYER_1
  5
FF4
 10
1313.32
 20
582.034
 30
0.000000
  70
    32
  0
VERTEX
  8
LAYER_1
  5
FF5
 10
1313.33
 20
582.030
 30
0.000000
  70
    32
  0
VERTEX
  8
LAYER_1
  5
FF6
 10
1313.34
 20
582.018
 30
0.000000
  70
    32
  0
VERTEX
  8
LAYER_1
  5
FF7
 10
1313.36
 20
581.999
 30
0.000000
  70
    32
  0
VERTEX
  8
LAYER_1
  5
FF8
 10
1313.38
 20
581.972
 30
0.000000
  70
    32
  0
VERTEX
  8
LAYER_1
  5
FF9
 10
1313.42
 20
581.938
 30
0.000000
  70
    32
  0
VERTEX
  8
LAYER_1
  5
FFA
 10
1313.46
 20
581.896
 30
0.000000
  70
    32
  0
VERTEX
  8
LAYER_1
  5
FFB
 10
1313.51
 20
581.847
 30
0.000000
  70
    32
  0
VERTEX
  8
LAYER_1
  5
FFC
 10
1313.56
 20
581.792
 30
0.000000
  70
    32
  0
VERTEX
  8
LAYER_1
  5
FFD
 10
1313.63
 20
581.729
 30
0.000000
  70
    32
  0
VERTEX
  8
LAYER_1
  5
FFE
 10
1313.70
 20
581.660
 30
0.000000
  70
    32
  0
VERTEX
  8
LAYER_1
  5
FFF
 10
1313.77
 20
581.584
 30
0.000000
  70
    32
  0
VERTEX
  8
LAYER_1
  5
1000
 10
1313.85
 20
581.501
 30
0.000000
  70
    32
  0
VERTEX
  8
LAYER_1
  5
1001
 10
1313.94
 20
581.412
 30
0.000000
  70
    32
  0
VERTEX
  8
LAYER_1
  5
1002
 10
1314.04
 20
581.317
 30
0.000000
  70
    32
  0
VERTEX
  8
LAYER_1
  5
1003
 10
1314.14
 20
581.216
 30
0.000000
  70
    32
  0
VERTEX
  8
LAYER_1
  5
1004
 10
1314.25
 20
581.108
 30
0.000000
  70
    32
  0
VERTEX
  8
LAYER_1
  5
1005
 10
1314.36
 20
580.995
 30
0.000000
  70
    32
  0
VERTEX
  8
LAYER_1
  5
1006
 10
1314.48
 20
580.876
 30
0.000000
  70
    32
  0
VERTEX
  8
LAYER_1
  5
1007
 10
1314.60
 20
580.751
 30
0.000000
  70
    32
  0
VERTEX
  8
LAYER_1
  5
1008
 10
1314.73
 20
580.621
 30
0.000000
  70
    32
  0
VERTEX
  8
LAYER_1
  5
1009
 10
1314.87
 20
580.485
 30
0.000000
  70
    32
  0
VERTEX
  8
LAYER_1
  5
100A
 10
1315.01
 20
580.344
 30
0.000000
  70
    32
  0
VERTEX
  8
LAYER_1
  5
100B
 10
1315.16
 20
580.198
 30
0.000000
  70
    32
  0
VERTEX
  8
LAYER_1
  5
100C
 10
1315.31
 20
580.047
 30
0.000000
  70
    32
  0
VERTEX
  8
LAYER_1
  5
100D
 10
1315.46
 20
579.891
 30
0.000000
  70
    32
  0
VERTEX
  8
LAYER_1
  5
100E
 10
1315.62
 20
579.730
 30
0.000000
  70
    32
  0
VERTEX
  8
LAYER_1
  5
100F
 10
1315.79
 20
579.565
 30
0.000000
  70
    32
  0
VERTEX
  8
LAYER_1
  5
1010
 10
1315.96
 20
579.395
 30
0.000000
  70
    32
  0
VERTEX
  8
LAYER_1
  5
1011
 10
1316.13
 20
579.220
 30
0.000000
  70
    32
  0
VERTEX
  8
LAYER_1
  5
1012
 10
1316.31
 20
579.042
 30
0.000000
  70
    32
  0
VERTEX
  8
LAYER_1
  5
1013
 10
1316.50
 20
578.859
 30
0.000000
  70
    32
  0
VERTEX
  8
LAYER_1
  5
1014
 10
1316.68
 20
578.672
 30
0.000000
  70
    32
  0
VERTEX
  8
LAYER_1
  5
1015
 10
1316.87
 20
578.481
 30
0.000000
  70
    32
  0
VERTEX
  8
LAYER_1
  5
1016
 10
1317.07
 20
578.286
 30
0.000000
  70
    32
  0
VERTEX
  8
LAYER_1
  5
1017
 10
1317.27
 20
578.088
 30
0.000000
  70
    32
  0
VERTEX
  8
LAYER_1
  5
1018
 10
1317.47
 20
577.886
 30
0.000000
  70
    32
  0
VERTEX
  8
LAYER_1
  5
1019
 10
1317.67
 20
577.681
 30
0.000000
  70
    32
  0
VERTEX
  8
LAYER_1
  5
101A
 10
1317.88
 20
577.473
 30
0.000000
  70
    32
  0
VERTEX
  8
LAYER_1
  5
101B
 10
1318.09
 20
577.261
 30
0.000000
  70
    32
  0
VERTEX
  8
LAYER_1
  5
101C
 10
1318.31
 20
577.046
 30
0.000000
  70
    32
  0
VERTEX
  8
LAYER_1
  5
101D
 10
1318.53
 20
576.828
 30
0.000000
  70
    32
  0
VERTEX
  8
LAYER_1
  5
101E
 10
1318.75
 20
576.608
 30
0.000000
  70
    32
  0
VERTEX
  8
LAYER_1
  5
101F
 10
1318.97
 20
576.385
 30
0.000000
  70
    32
  0
VERTEX
  8
LAYER_1
  5
1020
 10
1319.20
 20
576.159
 30
0.000000
  70
    32
  0
VERTEX
  8
LAYER_1
  5
1021
 10
1319.42
 20
575.931
 30
0.000000
  70
    32
  0
VERTEX
  8
LAYER_1
  5
1022
 10
1319.65
 20
575.701
 30
0.000000
  70
    32
  0
VERTEX
  8
LAYER_1
  5
1023
 10
1319.89
 20
575.468
 30
0.000000
  70
    32
  0
VERTEX
  8
LAYER_1
  5
1024
 10
1320.12
 20
575.233
 30
0.000000
  70
    32
  0
VERTEX
  8
LAYER_1
  5
1025
 10
1320.36
 20
574.997
 30
0.000000
  70
    32
  0
VERTEX
  8
LAYER_1
  5
1026
 10
1320.60
 20
574.758
 30
0.000000
  70
    32
  0
VERTEX
  8
LAYER_1
  5
1027
 10
1320.84
 20
574.518
 30
0.000000
  70
    32
  0
VERTEX
  8
LAYER_1
  5
1028
 10
1321.08
 20
574.277
 30
0.000000
  70
    32
  0
VERTEX
  8
LAYER_1
  5
1029
 10
1321.32
 20
574.034
 30
0.000000
  70
    32
  0
VERTEX
  8
LAYER_1
  5
102A
 10
1321.57
 20
573.789
 30
0.000000
  70
    32
  0
VERTEX
  8
LAYER_1
  5
102B
 10
1321.81
 20
573.544
 30
0.000000
  70
    32
  0
VERTEX
  8
LAYER_1
  5
102C
 10
1322.06
 20
573.297
 30
0.000000
  70
    32
  0
VERTEX
  8
LAYER_1
  5
102D
 10
1322.30
 20
573.050
 30
0.000000
  70
    32
  0
VERTEX
  8
LAYER_1
  5
102E
 10
1322.55
 20
572.802
 30
0.000000
  70
    32
  0
VERTEX
  8
LAYER_1
  5
102F
 10
1322.80
 20
572.553
 30
0.000000
  70
    32
  0
VERTEX
  8
LAYER_1
  5
1030
 10
1323.05
 20
572.303
 30
0.000000
  70
    32
  0
VERTEX
  8
LAYER_1
  5
1031
 10
1323.30
 20
572.053
 30
0.000000
  70
    32
  0
VERTEX
  8
LAYER_1
  5
1032
 10
1323.55
 20
571.803
 30
0.000000
  70
    32
  0
VERTEX
  8
LAYER_1
  5
1033
 10
1323.80
 20
571.552
 30
0.000000
  70
    32
  0
VERTEX
  8
LAYER_1
  5
1034
 10
1324.05
 20
571.302
 30
0.000000
  70
    32
  0
VERTEX
  8
LAYER_1
  5
1035
 10
1324.30
 20
571.051
 30
0.000000
  70
    32
  0
VERTEX
  8
LAYER_1
  5
1036
 10
1324.55
 20
570.801
 30
0.000000
  70
    32
  0
VERTEX
  8
LAYER_1
  5
1037
 10
1324.80
 20
570.551
 30
0.000000
  70
    32
  0
VERTEX
  8
LAYER_1
  5
1038
 10
1325.05
 20
570.301
 30
0.000000
  70
    32
  0
VERTEX
  8
LAYER_1
  5
1039
 10
1325.30
 20
570.052
 30
0.000000
  70
    32
  0
VERTEX
  8
LAYER_1
  5
103A
 10
1325.55
 20
569.804
 30
0.000000
  70
    32
  0
VERTEX
  8
LAYER_1
  5
103B
 10
1325.80
 20
569.557
 30
0.000000
  70
    32
  0
VERTEX
  8
LAYER_1
  5
103C
 10
1326.04
 20
569.310
 30
0.000000
  70
    32
  0
VERTEX
  8
LAYER_1
  5
103D
 10
1326.29
 20
569.065
 30
0.000000
  70
    32
  0
VERTEX
  8
LAYER_1
  5
103E
 10
1326.53
 20
568.820
 30
0.000000
  70
    32
  0
VERTEX
  8
LAYER_1
  5
103F
 10
1326.78
 20
568.577
 30
0.000000
  70
    32
  0
VERTEX
  8
LAYER_1
  5
1040
 10
1327.02
 20
568.336
 30
0.000000
  70
    32
  0
VERTEX
  8
LAYER_1
  5
1041
 10
1327.26
 20
568.096
 30
0.000000
  70
    32
  0
VERTEX
  8
LAYER_1
  5
1042
 10
1327.50
 20
567.857
 30
0.000000
  70
    32
  0
VERTEX
  8
LAYER_1
  5
1043
 10
1327.73
 20
567.621
 30
0.000000
  70
    32
  0
VERTEX
  8
LAYER_1
  5
1044
 10
1327.97
 20
567.386
 30
0.000000
  70
    32
  0
VERTEX
  8
LAYER_1
  5
1045
 10
1328.20
 20
567.153
 30
0.000000
  70
    32
  0
VERTEX
  8
LAYER_1
  5
1046
 10
1328.43
 20
566.923
 30
0.000000
  70
    32
  0
VERTEX
  8
LAYER_1
  5
1047
 10
1328.66
 20
566.695
 30
0.000000
  70
    32
  0
VERTEX
  8
LAYER_1
  5
1048
 10
1328.89
 20
566.469
 30
0.000000
  70
    32
  0
VERTEX
  8
LAYER_1
  5
1049
 10
1329.11
 20
566.246
 30
0.000000
  70
    32
  0
VERTEX
  8
LAYER_1
  5
104A
 10
1329.33
 20
566.026
 30
0.000000
  70
    32
  0
VERTEX
  8
LAYER_1
  5
104B
 10
1329.55
 20
565.808
 30
0.000000
  70
    32
  0
VERTEX
  8
LAYER_1
  5
104C
 10
1329.76
 20
565.593
 30
0.000000
  70
    32
  0
VERTEX
  8
LAYER_1
  5
104D
 10
1329.97
 20
565.381
 30
0.000000
  70
    32
  0
VERTEX
  8
LAYER_1
  5
104E
 10
1330.18
 20
565.173
 30
0.000000
  70
    32
  0
VERTEX
  8
LAYER_1
  5
104F
 10
1330.39
 20
564.968
 30
0.000000
  70
    32
  0
VERTEX
  8
LAYER_1
  5
1050
 10
1330.59
 20
564.766
 30
0.000000
  70
    32
  0
VERTEX
  8
LAYER_1
  5
1051
 10
1330.79
 20
564.568
 30
0.000000
  70
    32
  0
VERTEX
  8
LAYER_1
  5
1052
 10
1330.98
 20
564.373
 30
0.000000
  70
    32
  0
VERTEX
  8
LAYER_1
  5
1053
 10
1331.17
 20
564.182
 30
0.000000
  70
    32
  0
VERTEX
  8
LAYER_1
  5
1054
 10
1331.36
 20
563.995
 30
0.000000
  70
    32
  0
VERTEX
  8
LAYER_1
  5
1055
 10
1331.54
 20
563.812
 30
0.000000
  70
    32
  0
VERTEX
  8
LAYER_1
  5
1056
 10
1331.72
 20
563.634
 30
0.000000
  70
    32
  0
VERTEX
  8
LAYER_1
  5
1057
 10
1331.90
 20
563.459
 30
0.000000
  70
    32
  0
VERTEX
  8
LAYER_1
  5
1058
 10
1332.07
 20
563.289
 30
0.000000
  70
    32
  0
VERTEX
  8
LAYER_1
  5
1059
 10
1332.23
 20
563.124
 30
0.000000
  70
    32
  0
VERTEX
  8
LAYER_1
  5
105A
 10
1332.39
 20
562.963
 30
0.000000
  70
    32
  0
VERTEX
  8
LAYER_1
  5
105B
 10
1332.55
 20
562.807
 30
0.000000
  70
    32
  0
VERTEX
  8
LAYER_1
  5
105C
 10
1332.70
 20
562.656
 30
0.000000
  70
    32
  0
VERTEX
  8
LAYER_1
  5
105D
 10
1332.85
 20
562.510
 30
0.000000
  70
    32
  0
VERTEX
  8
LAYER_1
  5
105E
 10
1332.99
 20
562.369
 30
0.000000
  70
    32
  0
VERTEX
  8
LAYER_1
  5
105F
 10
1333.12
 20
562.233
 30
0.000000
  70
    32
  0
VERTEX
  8
LAYER_1
  5
1060
 10
1333.25
 20
562.103
 30
0.000000
  70
    32
  0
VERTEX
  8
LAYER_1
  5
1061
 10
1333.38
 20
561.978
 30
0.000000
  70
    32
  0
VERTEX
  8
LAYER_1
  5
1062
 10
1333.50
 20
561.859
 30
0.000000
  70
    32
  0
VERTEX
  8
LAYER_1
  5
1063
 10
1333.61
 20
561.746
 30
0.000000
  70
    32
  0
VERTEX
  8
LAYER_1
  5
1064
 10
1333.72
 20
561.638
 30
0.000000
  70
    32
  0
VERTEX
  8
LAYER_1
  5
1065
 10
1333.82
 20
561.537
 30
0.000000
  70
    32
  0
VERTEX
  8
LAYER_1
  5
1066
 10
1333.91
 20
561.442
 30
0.000000
  70
    32
  0
VERTEX
  8
LAYER_1
  5
1067
 10
1334.00
 20
561.353
 30
0.000000
  70
    32
  0
VERTEX
  8
LAYER_1
  5
1068
 10
1334.08
 20
561.270
 30
0.000000
  70
    32
  0
VERTEX
  8
LAYER_1
  5
1069
 10
1334.16
 20
561.194
 30
0.000000
  70
    32
  0
VERTEX
  8
LAYER_1
  5
106A
 10
1334.23
 20
561.125
 30
0.000000
  70
    32
  0
VERTEX
  8
LAYER_1
  5
106B
 10
1334.29
 20
561.062
 30
0.000000
  70
    32
  0
VERTEX
  8
LAYER_1
  5
106C
 10
1334.35
 20
561.007
 30
0.000000
  70
    32
  0
VERTEX
  8
LAYER_1
  5
106D
 10
1334.40
 20
560.958
 30
0.000000
  70
    32
  0
VERTEX
  8
LAYER_1
  5
106E
 10
1334.44
 20
560.916
 30
0.000000
  70
    32
  0
VERTEX
  8
LAYER_1
  5
106F
 10
1334.47
 20
560.882
 30
0.000000
  70
    32
  0
VERTEX
  8
LAYER_1
  5
1070
 10
1334.50
 20
560.855
 30
0.000000
  70
    32
  0
VERTEX
  8
LAYER_1
  5
1071
 10
1334.52
 20
560.836
 30
0.000000
  70
    32
  0
VERTEX
  8
LAYER_1
  5
1072
 10
1334.53
 20
560.824
 30
0.000000
  70
    32
  0
VERTEX
  8
LAYER_1
  5
1073
 10
1334.53
 20
560.820
 30
0.000000
  70
    32
  0
SEQEND
  8
LAYER_1
  5
1074
  0
POLYLINE
  8
LAYER_1
  5
1075
  66
     1
 10
0.000000
 20
0.000000
 30
0.000000
  70
     8
  0
VERTEX
  8
LAYER_1
  5
1076
 10
1334.53
 20
582.034
 30
0.000000
  70
    32
  0
VERTEX
  8
LAYER_1
  5
1077
 10
1334.53
 20
582.030
 30
0.000000
  70
    32
  0
VERTEX
  8
LAYER_1
  5
1078
 10
1334.52
 20
582.018
 30
0.000000
  70
    32
  0
VERTEX
  8
LAYER_1
  5
1079
 10
1334.50
 20
581.999
 30
0.000000
  70
    32
  0
VERTEX
  8
LAYER_1
  5
107A
 10
1334.47
 20
581.972
 30
0.000000
  70
    32
  0
VERTEX
  8
LAYER_1
  5
107B
 10
1334.44
 20
581.938
 30
0.000000
  70
    32
  0
VERTEX
  8
LAYER_1
  5
107C
 10
1334.40
 20
581.896
 30
0.000000
  70
    32
  0
VERTEX
  8
LAYER_1
  5
107D
 10
1334.35
 20
581.847
 30
0.000000
  70
    32
  0
VERTEX
  8
LAYER_1
  5
107E
 10
1334.29
 20
581.792
 30
0.000000
  70
    32
  0
VERTEX
  8
LAYER_1
  5
107F
 10
1334.23
 20
581.729
 30
0.000000
  70
    32
  0
VERTEX
  8
LAYER_1
  5
1080
 10
1334.16
 20
581.660
 30
0.000000
  70
    32
  0
VERTEX
  8
LAYER_1
  5
1081
 10
1334.08
 20
581.584
 30
0.000000
  70
    32
  0
VERTEX
  8
LAYER_1
  5
1082
 10
1334.00
 20
581.501
 30
0.000000
  70
    32
  0
VERTEX
  8
LAYER_1
  5
1083
 10
1333.91
 20
581.412
 30
0.000000
  70
    32
  0
VERTEX
  8
LAYER_1
  5
1084
 10
1333.82
 20
581.317
 30
0.000000
  70
    32
  0
VERTEX
  8
LAYER_1
  5
1085
 10
1333.72
 20
581.216
 30
0.000000
  70
    32
  0
VERTEX
  8
LAYER_1
  5
1086
 10
1333.61
 20
581.108
 30
0.000000
  70
    32
  0
VERTEX
  8
LAYER_1
  5
1087
 10
1333.50
 20
580.995
 30
0.000000
  70
    32
  0
VERTEX
  8
LAYER_1
  5
1088
 10
1333.38
 20
580.876
 30
0.000000
  70
    32
  0
VERTEX
  8
LAYER_1
  5
1089
 10
1333.25
 20
580.751
 30
0.000000
  70
    32
  0
VERTEX
  8
LAYER_1
  5
108A
 10
1333.12
 20
580.621
 30
0.000000
  70
    32
  0
VERTEX
  8
LAYER_1
  5
108B
 10
1332.99
 20
580.485
 30
0.000000
  70
    32
  0
VERTEX
  8
LAYER_1
  5
108C
 10
1332.85
 20
580.344
 30
0.000000
  70
    32
  0
VERTEX
  8
LAYER_1
  5
108D
 10
1332.70
 20
580.198
 30
0.000000
  70
    32
  0
VERTEX
  8
LAYER_1
  5
108E
 10
1332.55
 20
580.047
 30
0.000000
  70
    32
  0
VERTEX
  8
LAYER_1
  5
108F
 10
1332.39
 20
579.891
 30
0.000000
  70
    32
  0
VERTEX
  8
LAYER_1
  5
1090
 10
1332.23
 20
579.730
 30
0.000000
  70
    32
  0
VERTEX
  8
LAYER_1
  5
1091
 10
1332.07
 20
579.565
 30
0.000000
  70
    32
  0
VERTEX
  8
LAYER_1
  5
1092
 10
1331.90
 20
579.395
 30
0.000000
  70
    32
  0
VERTEX
  8
LAYER_1
  5
1093
 10
1331.72
 20
579.220
 30
0.000000
  70
    32
  0
VERTEX
  8
LAYER_1
  5
1094
 10
1331.54
 20
579.042
 30
0.000000
  70
    32
  0
VERTEX
  8
LAYER_1
  5
1095
 10
1331.36
 20
578.859
 30
0.000000
  70
    32
  0
VERTEX
  8
LAYER_1
  5
1096
 10
1331.17
 20
578.672
 30
0.000000
  70
    32
  0
VERTEX
  8
LAYER_1
  5
1097
 10
1330.98
 20
578.481
 30
0.000000
  70
    32
  0
VERTEX
  8
LAYER_1
  5
1098
 10
1330.79
 20
578.287
 30
0.000000
  70
    32
  0
VERTEX
  8
LAYER_1
  5
1099
 10
1330.59
 20
578.088
 30
0.000000
  70
    32
  0
VERTEX
  8
LAYER_1
  5
109A
 10
1330.39
 20
577.886
 30
0.000000
  70
    32
  0
VERTEX
  8
LAYER_1
  5
109B
 10
1330.18
 20
577.681
 30
0.000000
  70
    32
  0
VERTEX
  8
LAYER_1
  5
109C
 10
1329.97
 20
577.473
 30
0.000000
  70
    32
  0
VERTEX
  8
LAYER_1
  5
109D
 10
1329.76
 20
577.261
 30
0.000000
  70
    32
  0
VERTEX
  8
LAYER_1
  5
109E
 10
1329.55
 20
577.046
 30
0.000000
  70
    32
  0
VERTEX
  8
LAYER_1
  5
109F
 10
1329.33
 20
576.828
 30
0.000000
  70
    32
  0
VERTEX
  8
LAYER_1
  5
10A0
 10
1329.11
 20
576.608
 30
0.000000
  70
    32
  0
VERTEX
  8
LAYER_1
  5
10A1
 10
1328.89
 20
576.385
 30
0.000000
  70
    32
  0
VERTEX
  8
LAYER_1
  5
10A2
 10
1328.66
 20
576.159
 30
0.000000
  70
    32
  0
VERTEX
  8
LAYER_1
  5
10A3
 10
1328.43
 20
575.931
 30
0.000000
  70
    32
  0
VERTEX
  8
LAYER_1
  5
10A4
 10
1328.20
 20
575.701
 30
0.000000
  70
    32
  0
VERTEX
  8
LAYER_1
  5
10A5
 10
1327.97
 20
575.468
 30
0.000000
  70
    32
  0
VERTEX
  8
LAYER_1
  5
10A6
 10
1327.73
 20
575.233
 30
0.000000
  70
    32
  0
VERTEX
  8
LAYER_1
  5
10A7
 10
1327.50
 20
574.997
 30
0.000000
  70
    32
  0
VERTEX
  8
LAYER_1
  5
10A8
 10
1327.26
 20
574.758
 30
0.000000
  70
    32
  0
VERTEX
  8
LAYER_1
  5
10A9
 10
1327.02
 20
574.518
 30
0.000000
  70
    32
  0
VERTEX
  8
LAYER_1
  5
10AA
 10
1326.78
 20
574.277
 30
0.000000
  70
    32
  0
VERTEX
  8
LAYER_1
  5
10AB
 10
1326.53
 20
574.034
 30
0.000000
  70
    32
  0
VERTEX
  8
LAYER_1
  5
10AC
 10
1326.29
 20
573.789
 30
0.000000
  70
    32
  0
VERTEX
  8
LAYER_1
  5
10AD
 10
1326.04
 20
573.544
 30
0.000000
  70
    32
  0
VERTEX
  8
LAYER_1
  5
10AE
 10
1325.80
 20
573.297
 30
0.000000
  70
    32
  0
VERTEX
  8
LAYER_1
  5
10AF
 10
1325.55
 20
573.050
 30
0.000000
  70
    32
  0
VERTEX
  8
LAYER_1
  5
10B0
 10
1325.30
 20
572.802
 30
0.000000
  70
    32
  0
VERTEX
  8
LAYER_1
  5
10B1
 10
1325.05
 20
572.553
 30
0.000000
  70
    32
  0
VERTEX
  8
LAYER_1
  5
10B2
 10
1324.80
 20
572.303
 30
0.000000
  70
    32
  0
VERTEX
  8
LAYER_1
  5
10B3
 10
1324.55
 20
572.053
 30
0.000000
  70
    32
  0
VERTEX
  8
LAYER_1
  5
10B4
 10
1324.30
 20
571.803
 30
0.000000
  70
    32
  0
VERTEX
  8
LAYER_1
  5
10B5
 10
1324.05
 20
571.552
 30
0.000000
  70
    32
  0
VERTEX
  8
LAYER_1
  5
10B6
 10
1323.80
 20
571.302
 30
0.000000
  70
    32
  0
VERTEX
  8
LAYER_1
  5
10B7
 10
1323.55
 20
571.051
 30
0.000000
  70
    32
  0
VERTEX
  8
LAYER_1
  5
10B8
 10
1323.30
 20
570.801
 30
0.000000
  70
    32
  0
VERTEX
  8
LAYER_1
  5
10B9
 10
1323.05
 20
570.551
 30
0.000000
  70
    32
  0
VERTEX
  8
LAYER_1
  5
10BA
 10
1322.80
 20
570.301
 30
0.000000
  70
    32
  0
VERTEX
  8
LAYER_1
  5
10BB
 10
1322.55
 20
570.052
 30
0.000000
  70
    32
  0
VERTEX
  8
LAYER_1
  5
10BC
 10
1322.31
 20
569.804
 30
0.000000
  70
    32
  0
VERTEX
  8
LAYER_1
  5
10BD
 10
1322.06
 20
569.557
 30
0.000000
  70
    32
  0
VERTEX
  8
LAYER_1
  5
10BE
 10
1321.81
 20
569.310
 30
0.000000
  70
    32
  0
VERTEX
  8
LAYER_1
  5
10BF
 10
1321.57
 20
569.065
 30
0.000000
  70
    32
  0
VERTEX
  8
LAYER_1
  5
10C0
 10
1321.32
 20
568.820
 30
0.000000
  70
    32
  0
VERTEX
  8
LAYER_1
  5
10C1
 10
1321.08
 20
568.577
 30
0.000000
  70
    32
  0
VERTEX
  8
LAYER_1
  5
10C2
 10
1320.84
 20
568.336
 30
0.000000
  70
    32
  0
VERTEX
  8
LAYER_1
  5
10C3
 10
1320.60
 20
568.096
 30
0.000000
  70
    32
  0
VERTEX
  8
LAYER_1
  5
10C4
 10
1320.36
 20
567.857
 30
0.000000
  70
    32
  0
VERTEX
  8
LAYER_1
  5
10C5
 10
1320.12
 20
567.621
 30
0.000000
  70
    32
  0
VERTEX
  8
LAYER_1
  5
10C6
 10
1319.89
 20
567.386
 30
0.000000
  70
    32
  0
VERTEX
  8
LAYER_1
  5
10C7
 10
1319.65
 20
567.153
 30
0.000000
  70
    32
  0
VERTEX
  8
LAYER_1
  5
10C8
 10
1319.42
 20
566.923
 30
0.000000
  70
    32
  0
VERTEX
  8
LAYER_1
  5
10C9
 10
1319.20
 20
566.695
 30
0.000000
  70
    32
  0
VERTEX
  8
LAYER_1
  5
10CA
 10
1318.97
 20
566.469
 30
0.000000
  70
    32
  0
VERTEX
  8
LAYER_1
  5
10CB
 10
1318.75
 20
566.246
 30
0.000000
  70
    32
  0
VERTEX
  8
LAYER_1
  5
10CC
 10
1318.53
 20
566.026
 30
0.000000
  70
    32
  0
VERTEX
  8
LAYER_1
  5
10CD
 10
1318.31
 20
565.808
 30
0.000000
  70
    32
  0
VERTEX
  8
LAYER_1
  5
10CE
 10
1318.09
 20
565.593
 30
0.000000
  70
    32
  0
VERTEX
  8
LAYER_1
  5
10CF
 10
1317.88
 20
565.381
 30
0.000000
  70
    32
  0
VERTEX
  8
LAYER_1
  5
10D0
 10
1317.67
 20
565.173
 30
0.000000
  70
    32
  0
VERTEX
  8
LAYER_1
  5
10D1
 10
1317.47
 20
564.968
 30
0.000000
  70
    32
  0
VERTEX
  8
LAYER_1
  5
10D2
 10
1317.27
 20
564.766
 30
0.000000
  70
    32
  0
VERTEX
  8
LAYER_1
  5
10D3
 10
1317.07
 20
564.568
 30
0.000000
  70
    32
  0
VERTEX
  8
LAYER_1
  5
10D4
 10
1316.87
 20
564.373
 30
0.000000
  70
    32
  0
VERTEX
  8
LAYER_1
  5
10D5
 10
1316.68
 20
564.182
 30
0.000000
  70
    32
  0
VERTEX
  8
LAYER_1
  5
10D6
 10
1316.50
 20
563.995
 30
0.000000
  70
    32
  0
VERTEX
  8
LAYER_1
  5
10D7
 10
1316.31
 20
563.812
 30
0.000000
  70
    32
  0
VERTEX
  8
LAYER_1
  5
10D8
 10
1316.13
 20
563.634
 30
0.000000
  70
    32
  0
VERTEX
  8
LAYER_1
  5
10D9
 10
1315.96
 20
563.459
 30
0.000000
  70
    32
  0
VERTEX
  8
LAYER_1
  5
10DA
 10
1315.79
 20
563.289
 30
0.000000
  70
    32
  0
VERTEX
  8
LAYER_1
  5
10DB
 10
1315.62
 20
563.124
 30
0.000000
  70
    32
  0
VERTEX
  8
LAYER_1
  5
10DC
 10
1315.46
 20
562.963
 30
0.000000
  70
    32
  0
VERTEX
  8
LAYER_1
  5
10DD
 10
1315.31
 20
562.807
 30
0.000000
  70
    32
  0
VERTEX
  8
LAYER_1
  5
10DE
 10
1315.16
 20
562.656
 30
0.000000
  70
    32
  0
VERTEX
  8
LAYER_1
  5
10DF
 10
1315.01
 20
562.510
 30
0.000000
  70
    32
  0
VERTEX
  8
LAYER_1
  5
10E0
 10
1314.87
 20
562.369
 30
0.000000
  70
    32
  0
VERTEX
  8
LAYER_1
  5
10E1
 10
1314.73
 20
562.233
 30
0.000000
  70
    32
  0
VERTEX
  8
LAYER_1
  5
10E2
 10
1314.60
 20
562.103
 30
0.000000
  70
    32
  0
VERTEX
  8
LAYER_1
  5
10E3
 10
1314.48
 20
561.978
 30
0.000000
  70
    32
  0
VERTEX
  8
LAYER_1
  5
10E4
 10
1314.36
 20
561.859
 30
0.000000
  70
    32
  0
VERTEX
  8
LAYER_1
  5
10E5
 10
1314.25
 20
561.746
 30
0.000000
  70
    32
  0
VERTEX
  8
LAYER_1
  5
10E6
 10
1314.14
 20
561.638
 30
0.000000
  70
    32
  0
VERTEX
  8
LAYER_1
  5
10E7
 10
1314.04
 20
561.537
 30
0.000000
  70
    32
  0
VERTEX
  8
LAYER_1
  5
10E8
 10
1313.94
 20
561.442
 30
0.000000
  70
    32
  0
VERTEX
  8
LAYER_1
  5
10E9
 10
1313.85
 20
561.353
 30
0.000000
  70
    32
  0
VERTEX
  8
LAYER_1
  5
10EA
 10
1313.77
 20
561.270
 30
0.000000
  70
    32
  0
VERTEX
  8
LAYER_1
  5
10EB
 10
1313.70
 20
561.194
 30
0.000000
  70
    32
  0
VERTEX
  8
LAYER_1
  5
10EC
 10
1313.63
 20
561.125
 30
0.000000
  70
    32
  0
VERTEX
  8
LAYER_1
  5
10ED
 10
1313.56
 20
561.062
 30
0.000000
  70
    32
  0
VERTEX
  8
LAYER_1
  5
10EE
 10
1313.51
 20
561.007
 30
0.000000
  70
    32
  0
VERTEX
  8
LAYER_1
  5
10EF
 10
1313.46
 20
560.958
 30
0.000000
  70
    32
  0
VERTEX
  8
LAYER_1
  5
10F0
 10
1313.42
 20
560.917
 30
0.000000
  70
    32
  0
VERTEX
  8
LAYER_1
  5
10F1
 10
1313.38
 20
560.882
 30
0.000000
  70
    32
  0
VERTEX
  8
LAYER_1
  5
10F2
 10
1313.36
 20
560.855
 30
0.000000
  70
    32
  0
VERTEX
  8
LAYER_1
  5
10F3
 10
1313.34
 20
560.836
 30
0.000000
  70
    32
  0
VERTEX
  8
LAYER_1
  5
10F4
 10
1313.33
 20
560.824
 30
0.000000
  70
    32
  0
VERTEX
  8
LAYER_1
  5
10F5
 10
1313.32
 20
560.820
 30
0.000000
  70
    32
  0
SEQEND
  8
LAYER_1
  5
10F6
  0
POLYLINE
  5
AD2
  8
0
 66
     1
 10
0.0
 20
0.0
 30
0.0
 70
     1
  0
VERTEX
  5
EDD
  8
0
 10
1280.1779142077639
 20
751.95571391245812
 30
0.0
  0
VERTEX
  5
EDE
  8
0
 10
1280.1779142077639
 20
704.45363325434414
 30
0.0
  0
VERTEX
  5
EDF
  8
0
 10
1161.2933545348581
 20
585.56907358143781
 30
0.0
 42
0.4142135623730959
  0
VERTEX
  5
EE0
  8
0
 10
1161.2933545348581
 20
557.2848023339759
 30
0.0
  0
VERTEX
  5
EE1
  8
0
 10
1309.7857785840331
 20
408.79237828480132
 30
0.0
 42
0.414213562373094
  0
VERTEX
  5
EE2
  8
0
 10
1338.070049831495
 20
408.79237828480132
 30
0.0
  0
VERTEX
  5
EE3
  8
0
 10
1486.56247388067
 20
557.2848023339759
 30
0.0
 42
0.4142135623730953
  0
VERTEX
  5
EE4
  8
0
 10
1486.56247388067
 20
585.56907358143803
 30
0.0
  0
VERTEX
  5
EE5
  8
0
 10
1367.6779142077639
 20
704.45363325434369
 30
0.0
  0
VERTEX
  5
EE6
  8
0
 10
1367.6779142077639
 20
751.95571391245812
 30
0.0
 42
0.9999999999999998
  0
SEQEND
  5
EE7
  8
0
  0
CIRCLE
  5
AD3
  8
0
 10
1323.9279142077639
 20
751.95571391245812
 30
0.0
 40
33.0
  0
INSERT
  5
AD4
  8
0
  2
*U97
 10
1836.39783020607
 20
2211.011347938188
 30
0.0
 50
270.0
  0
INSERT
  5
C1F
  8
0
  2
*U98
 10
0.0
 20
0.0
 30
0.0
  0
LINE
  5
C20
  8
0
 10
145.52228097905021
 20
796.52691609456633
 30
0.0
 11
280.20710744229291
 21
791.85201140337256
 31
0.0
  0
LINE
  5
C21
  8
0
 10
280.20710744229291
 20
791.85201140337256
 30
0.0
 11
143.61856554372571
 21
894.53132854526837
 31
0.0
  0
LINE
  5
C22
  8
0
 10
289.45013829721569
 20
806.25116220771076
 30
0.0
 11
200.43139218068239
 21
958.28746500531815
 31
0.0
  0
LINE
  5
C23
  8
0
 10
307.06463210976648
 20
809.56006278181303
 30
0.0
 11
317.74820832354823
 21
1022.141871761847
 31
0.0
  0
LINE
  5
C24
  8
0
 10
324.15269163830089
 20
815.07695787442753
 30
0.0
 11
372.77587317993311
 21
1084.1142662143809
 31
0.0
  0
ENDSEC
  0
EOF
